<svg xmlns="http://www.w3.org/2000/svg" width="167" height="24" viewBox="0 0 44.185 6.35"><defs><clipPath id="a" clipPathUnits="userSpaceOnUse"><path d="M0 0h1562.5v1562.5H0z" clip-rule="evenodd"/></clipPath><clipPath id="b" clipPathUnits="userSpaceOnUse"><path d="M0 0h1562.5v1562.5H0z" clip-rule="evenodd"/></clipPath><clipPath id="c" clipPathUnits="userSpaceOnUse"><path d="M156.25 474.82h1250v12.5h-1250z" clip-rule="evenodd"/></clipPath><clipPath id="d" clipPathUnits="userSpaceOnUse"><path d="M156.25 1070.57h1250v12.5h-1250z" clip-rule="evenodd"/></clipPath></defs><g fill="#1a2451" stroke-width=".203" aria-label="KRISMA PERKASA ENGINEERING" font-family="Calibri" font-size="2.646" font-weight="400" style="line-height:1.25"><path d="M10.62 3.97q0 .02-.01.02 0 .01-.02.02-.01 0-.03 0-.02 0-.06 0-.04 0-.07 0-.03 0-.04 0-.02-.02-.03-.03l-.61-.84v.84q0 0 0 .02-.01 0-.03 0 0 .01-.03.01-.02 0-.05 0-.03 0-.06 0-.02 0-.03 0-.01 0-.02-.01 0-.01 0-.02v-1.6q0-.02 0-.03 0 0 .02 0 .01-.01.03-.01.03 0 .06 0t.05 0q.02 0 .03 0 .02 0 .02.01t0 .02v.75l.6-.75q0 0 .02-.02 0 0 .02 0 .02-.01.04-.02.02 0 .05 0 .04 0 .06 0 .02 0 .03.01.01 0 .02.02 0 0 0 .01 0 .02 0 .04-.01.01-.04.04l-.55.67.6.79q.02.03.02.05 0 0 0 .01zM12.01 3.98q0 0 0 .02 0 0-.02 0 0 .01-.03.02-.03 0-.06 0-.04 0-.06 0-.02 0-.03-.01-.02 0-.02-.02-.01 0-.02-.02l-.15-.4q-.03-.07-.06-.12-.02-.06-.06-.1-.04-.04-.1-.06-.05-.02-.13-.02h-.15v.7q0 .02 0 .03-.01 0-.02 0-.01.01-.04.01-.02 0-.05 0-.03 0-.05 0-.02 0-.04 0-.01 0-.02-.01 0-.01 0-.02V2.43q0-.05.03-.07.02-.02.05-.02h.36q.06 0 .1 0 .04 0 .08 0 .1.03.17.06.07.04.12.1.05.05.08.12.02.07.02.16 0 .08-.02.15-.02.07-.06.12-.05.05-.1.09-.06.03-.14.06.04.02.08.05.03.02.06.06.03.04.05.1.03.04.06.1l.15.37q.01.05.02.07 0 .02 0 .03zm-.33-1.18q0-.1-.04-.16-.05-.07-.15-.1-.03-.01-.07-.01-.04 0-.11 0h-.19v.56h.22q.09 0 .15-.02.06-.03.1-.06.05-.04.07-.1.02-.05.02-.1zM12.56 3.98q0 0 0 .02-.01 0-.02 0-.02.01-.04.01t-.05 0q-.03 0-.06 0-.02 0-.03 0-.01 0-.02-.01 0-.01 0-.02v-1.6q0-.02 0-.03 0 0 .02 0 .01-.01.04-.01.02 0 .05 0 .03 0 .05 0 .02 0 .04 0 0 0 .01.01 0 .01 0 .02zM13.9 3.54q0 .12-.04.21-.05.1-.12.16-.08.06-.18.1-.1.03-.23.03-.08 0-.15-.02-.08-.01-.13-.03-.06-.02-.1-.05-.03-.02-.05-.03-.01-.02-.02-.04 0-.03 0-.07 0-.03 0-.04 0-.02 0-.03 0-.02.02-.02 0 0 .01 0 .02 0 .05.02.04.02.09.04.05.03.12.05.08.03.17.03.07 0 .13-.02.07-.02.1-.06.05-.03.07-.09.03-.05.03-.11 0-.07-.03-.12-.04-.06-.09-.1-.05-.03-.12-.06-.07-.03-.14-.07-.07-.03-.14-.07-.06-.04-.12-.1-.05-.05-.08-.12-.04-.08-.04-.18 0-.1.04-.18.04-.09.1-.14.08-.06.17-.09.1-.03.2-.03.06 0 .11.01.06.01.1.03.06.02.1.04.04.02.05.03.01.01.01.02 0 0 .01.02 0 0 0 .02t0 .04 0 .04q0 .02 0 .03 0 .02-.01.02 0 0-.02 0-.01 0-.04-.01-.03-.02-.08-.04-.04-.02-.1-.04-.06-.02-.14-.02-.07 0-.12.02-.05.02-.08.05-.04.03-.05.07-.02.04-.02.1 0 .06.03.11t.09.1q.05.03.12.06.07.03.14.07.07.03.14.07.07.04.12.1.05.05.09.12.03.07.03.17zM16.03 3.98q0 0 0 .02 0 0-.02 0-.01.01-.03.01-.02 0-.05 0-.03 0-.06 0-.02 0-.03 0-.01 0-.02-.01 0-.01 0-.02V2.52l-.6 1.46q0 .01-.01.02 0 0-.02.01-.01 0-.03 0-.02 0-.05 0-.02 0-.04 0t-.04 0q0 0-.02-.01 0 0 0-.02l-.58-1.46v1.46q0 0 0 .02 0 0-.02 0-.01.01-.03.01-.02 0-.06 0-.03 0-.05 0-.02 0-.03 0-.01 0-.02-.01 0-.01 0-.02V2.44q0-.05.03-.08.02-.02.06-.02h.13q.04 0 .08 0 .03.01.05.03.02.02.04.04.01.03.03.06l.48 1.22.51-1.21q.01-.04.03-.07.02-.02.04-.04t.04-.02q.03-.01.06-.01h.14q.02 0 .04 0 .01.01.03.02 0 .02.02.03 0 .02 0 .05zM17.73 3.93q.01.03.01.05 0 .02 0 .02-.02.01-.04.02-.02 0-.06 0-.04 0-.07 0-.02 0-.04 0 0-.01-.01-.02 0-.01-.01-.02l-.15-.4h-.7l-.13.4q0 0 0 .01-.02.01-.03.02-.01 0-.03 0-.03 0-.06 0-.04 0-.06 0-.03 0-.04 0 0-.02 0-.03 0-.02 0-.05l.57-1.55q0-.02 0-.03.02 0 .03-.01.02 0 .04 0 .03 0 .07 0 .04 0 .07 0 .03 0 .04 0 .02 0 .03.02 0 0 .01.02zm-.72-1.37l-.29.83h.58zM19.64 2.83q0 .12-.04.22-.05.1-.12.18-.08.07-.2.1-.1.05-.26.05h-.19v.6q0 0 0 .02-.01 0-.02 0-.01.01-.04.01-.02 0-.05 0-.03 0-.05 0-.02 0-.04 0-.01 0-.02-.01 0-.01 0-.02V2.43q0-.05.03-.07.02-.02.06-.02h.36q.05 0 .1 0t.12.02q.06.02.13.06.08.04.12.1.05.06.08.14.03.07.03.17zm-.24.02q0-.1-.04-.17-.03-.07-.09-.1-.06-.04-.12-.05-.06 0-.11 0h-.2v.66h.2q.1 0 .16-.02.07-.03.11-.07.05-.05.07-.11.02-.07.02-.14zM20.9 3.92q0 .02 0 .04t0 .03q0 .01-.02.02 0 0-.02 0h-.8q-.03 0-.06-.02-.02-.02-.02-.07V2.43q0-.05.02-.07.03-.02.06-.02h.8q0 0 .01 0t.02.02q0 .01 0 .03 0 .02 0 .04 0 .03 0 .04 0 .02 0 .03 0 .01-.02.02 0 0-.01 0h-.66v.53h.56q.01 0 .02 0 0 .01.01.02t.01.03q0 .02 0 .04t0 .04q0 .02 0 .03-.01 0-.02.01 0 0-.02 0h-.56v.6h.66q.01 0 .02.01.01 0 .02.02 0 0 0 .03 0 .01 0 .04zM22.39 3.98q0 0 0 .02-.01 0-.02 0-.02.01-.04.02-.02 0-.06 0-.04 0-.06 0-.02 0-.03-.01-.01 0-.02-.02 0 0-.01-.02l-.16-.4q-.03-.07-.05-.12-.03-.06-.07-.1-.04-.04-.1-.06-.05-.02-.13-.02h-.15v.7q0 .02 0 .03 0 0-.02 0-.01.01-.03.01-.03 0-.06 0t-.05 0q-.02 0-.04 0 0 0-.01-.01 0-.01 0-.02V2.43q0-.05.02-.07.02-.02.05-.02h.36q.06 0 .1 0 .05 0 .08 0 .1.03.17.06.08.04.13.1.05.05.07.12.03.07.03.16 0 .08-.03.15-.02.07-.06.12-.04.05-.1.09-.06.03-.14.06.04.02.08.05.03.02.06.06.03.04.06.1.02.04.05.1l.15.37q.02.05.02.07 0 .02 0 .03zm-.34-1.18q0-.1-.04-.16-.05-.07-.15-.1-.03-.01-.07-.01-.04 0-.1 0h-.2v.56h.22q.09 0 .15-.02.07-.03.1-.06.05-.04.07-.1.02-.05.02-.1zM23.8 3.97q0 .02 0 .02-.01.01-.02.02-.02 0-.04 0t-.06 0q-.04 0-.07 0-.03 0-.04 0-.02-.02-.03-.03l-.61-.84v.84q0 0 0 .02-.01 0-.02 0-.02.01-.04.01t-.05 0-.05 0q-.03 0-.04 0-.01 0-.02-.01 0-.01 0-.02v-1.6q0-.02 0-.03 0 0 .02 0 .01-.01.04-.01.02 0 .05 0 .03 0 .05 0 .02 0 .04 0 0 0 .01.01t.01.02v.75l.6-.75q0 0 .01-.02.01 0 .02 0 .02-.01.04-.02.02 0 .06 0 .03 0 .05 0 .02 0 .03.01.02 0 .02.02 0 0 0 .01 0 .02 0 .04-.01.01-.04.04l-.55.67.6.79q.02.03.02.05 0 0 0 .01zM25.33 3.93q.01.03.01.05 0 .02 0 .02-.01.01-.04.02-.02 0-.06 0-.04 0-.07 0-.02 0-.03 0-.02-.01-.02-.02t-.01-.02l-.15-.4h-.69l-.14.4q0 0 0 .01-.01.01-.03.02 0 0-.03 0-.02 0-.06 0-.04 0-.06 0-.03 0-.04 0 0-.02 0-.03 0-.02 0-.05l.57-1.55q0-.02.01-.03.01 0 .03-.01.01 0 .04 0 .02 0 .06 0 .04 0 .07 0 .03 0 .04 0 .02 0 .03.02 0 0 .01.02zm-.72-1.37l-.28.83h.58zM26.51 3.54q0 .12-.04.21-.05.1-.12.16-.08.06-.19.1-.1.03-.22.03-.08 0-.16-.02-.07-.01-.12-.03-.06-.02-.1-.05-.03-.02-.05-.03-.01-.02-.02-.04 0-.03 0-.07 0-.03 0-.04 0-.02 0-.03 0-.02.01-.02t.02 0q.02 0 .05.02.04.02.09.04.05.03.12.05.08.03.17.03.07 0 .13-.02t.1-.06q.05-.03.07-.09.03-.05.03-.11 0-.07-.04-.12-.03-.06-.08-.1-.05-.03-.12-.06-.07-.03-.14-.07-.07-.03-.14-.07-.07-.04-.12-.1-.05-.05-.08-.12-.04-.08-.04-.18 0-.1.04-.18.04-.09.1-.14.07-.06.17-.09t.2-.03q.06 0 .11.01.06.01.1.03.06.02.1.04.04.02.05.03.01.01.01.02 0 0 .01.02 0 0 0 .02t0 .04 0 .04q0 .02 0 .03 0 .02-.01.02t-.02 0q-.01 0-.04-.01-.03-.02-.08-.04-.04-.02-.1-.04-.06-.02-.14-.02-.07 0-.12.02-.05.02-.08.05-.04.03-.05.07-.02.04-.02.1 0 .06.03.11t.09.1q.05.03.12.06.07.03.14.07.07.03.14.07.07.04.12.1.05.05.09.12.03.07.03.17zM28.06 3.93q0 .03 0 .05 0 .02 0 .02-.01.01-.04.02-.02 0-.06 0-.04 0-.06 0-.03 0-.04 0-.01-.01-.02-.02 0-.01 0-.02l-.15-.4h-.7l-.13.4q0 0-.01.01t-.02.02q-.02 0-.04 0t-.06 0-.06 0q-.02 0-.03 0-.01-.02-.01-.03 0-.02.01-.05l.56-1.55q0-.02.01-.03.01 0 .03-.01.02 0 .04 0 .03 0 .06 0 .05 0 .07 0 .03 0 .05 0 .01 0 .02.02.01 0 .02.02zm-.72-1.37l-.3.83h.59zM29.86 3.92q0 .02 0 .04t0 .03q-.01.01-.02.02-.01 0-.02 0h-.8q-.03 0-.06-.02t-.03-.07V2.43q0-.05.03-.07.03-.02.06-.02h.8q.02 0 .02.02 0 .01.01.03 0 .02 0 .04 0 .03 0 .04 0 .02 0 .03-.01.01-.02.02 0 0-.02 0h-.65v.53h.56q0 0 .02 0 0 .01.01.02 0 .01 0 .03.01.02.01.04t0 .04q0 .02-.01.03 0 0-.01.01-.01 0-.02 0h-.56v.6h.66q.01 0 .02.01 0 0 .01.02.01 0 .01.03 0 .01 0 .04zM31.49 3.92q0 .02 0 .04-.02.02-.03.03-.01.01-.03.02-.02 0-.03 0h-.08q-.03 0-.05 0-.03 0-.05-.03-.02-.02-.05-.05-.02-.03-.05-.08l-.52-.95q-.05-.08-.09-.16-.04-.08-.08-.15 0 .09 0 .19t0 .19v1q0 .02 0 .03 0 0-.02 0 0 .01-.03.01-.02 0-.05 0-.03 0-.05 0-.02 0-.03 0-.01 0-.02-.01 0-.01 0-.02V2.43q0-.05.02-.07.03-.02.07-.02h.1q.04 0 .06 0 .03.01.05.03.02.01.04.04.02.02.04.06l.4.74q.04.07.08.13.03.06.07.13.03.06.06.12t.06.12q0-.1 0-.21 0-.11 0-.22v-.9q0-.01 0-.02.01 0 .02-.01t.03-.01q.02 0 .06 0 .03 0 .05 0 .02 0 .03 0 .01.01.01.02.01 0 .01.02zM33.2 2.57q0 .02-.01.04 0 .02 0 .03-.01.01-.02.02 0 0-.02 0-.01 0-.05-.02-.04-.03-.1-.06-.06-.03-.14-.05-.09-.02-.2-.02-.14 0-.25.05-.11.05-.19.14-.07.08-.11.2-.04.13-.04.27 0 .16.04.29.05.12.12.2.08.1.2.14.1.04.23.04.08 0 .16-.02t.15-.05v-.5h-.4q-.01 0-.02-.01-.01-.03-.01-.07 0-.03 0-.04 0-.02 0-.03.01-.01.02-.02 0 0 .02 0h.53q.01 0 .03 0 .01 0 .02.02.02 0 .02.03 0 .01 0 .04v.63q0 .04 0 .06-.01.03-.05.05-.04.01-.1.04-.06.02-.12.03-.06.02-.13.03-.06 0-.13 0-.2 0-.34-.06-.16-.06-.26-.17-.1-.1-.16-.26t-.06-.35q0-.2.06-.36.06-.16.17-.28.11-.1.26-.17.16-.06.34-.06.1 0 .18.01.09.02.15.04.07.02.11.05.05.03.06.04.02.02.03.04 0 .03 0 .07zM33.83 3.98q0 0 0 .02-.01 0-.02 0-.02.01-.04.01t-.05 0q-.03 0-.06 0-.02 0-.03 0-.01 0-.02-.01 0-.01 0-.02v-1.6q0-.02 0-.03 0 0 .02 0 .01-.01.04-.01.02 0 .05 0 .03 0 .05 0 .02 0 .04 0 0 0 .01.01 0 .01 0 .02zM35.54 3.92q0 .02-.01.04T35.5 4q-.02.01-.03.02-.02 0-.04 0h-.07q-.03 0-.06 0-.02 0-.05-.03-.02-.02-.04-.05-.02-.03-.05-.08l-.53-.95q-.04-.08-.08-.16t-.08-.15q0 .09 0 .19t0 .19v1q0 .02 0 .03 0 0-.02 0-.01.01-.03.01-.02 0-.05 0-.03 0-.05 0-.02 0-.04 0 0 0-.01-.01 0-.01 0-.02V2.43q0-.05.02-.07.03-.02.06-.02h.1q.05 0 .07 0 .03.01.05.03.02.01.04.04.01.02.04.06l.4.74q.04.07.07.13.04.06.07.13.03.06.06.12.04.06.07.12 0-.1 0-.21 0-.11 0-.22v-.9q0-.01 0-.02 0 0 .02-.01.01-.01.03-.01.02 0 .05 0 .03 0 .05 0 .02 0 .03 0 .02.01.02.02 0 0 0 .02zM36.91 3.92q0 .02 0 .04t0 .03q-.01.01-.02.02-.01 0-.02 0h-.8q-.03 0-.06-.02t-.03-.07V2.43q0-.05.03-.07.03-.02.06-.02h.79q.01 0 .02 0 0 0 .01.02 0 .01 0 .03.01.02.01.04 0 .03 0 .04 0 .02 0 .03-.01.01-.02.02-.01 0-.02 0h-.65v.53h.56q0 0 .01 0 .01.01.02.02 0 .01 0 .03.01.02.01.04t0 .04q0 .02-.01.03 0 0-.02.01 0 0-.01 0h-.56v.6h.66q0 0 .02.01 0 0 .01.02 0 0 .01.03 0 .01 0 .04zM38.2 3.92q0 .02 0 .04t0 .03q-.01.01-.02.02-.01 0-.02 0h-.8q-.03 0-.06-.02-.02-.02-.02-.07V2.43q0-.05.02-.07.03-.02.06-.02h.8q.02 0 .02.02 0 .01.01.03 0 .02 0 .04 0 .03 0 .04 0 .02 0 .03-.01.01-.02.02 0 0-.02 0h-.65v.53h.56q0 0 .02 0 0 .01.01.02 0 .01 0 .03.01.02.01.04t0 .04q0 .02-.01.03 0 0-.01.01-.01 0-.02 0h-.56v.6h.66q.01 0 .02.01 0 0 .01.02.01 0 .01.03 0 .01 0 .04zM39.68 3.98q0 0 0 .02 0 0-.02 0-.01.01-.03.02-.03 0-.07 0-.03 0-.05 0-.02 0-.04-.01 0 0-.02-.02 0 0 0-.02l-.16-.4q-.03-.07-.06-.12-.03-.06-.07-.1-.04-.04-.1-.06-.05-.02-.12-.02h-.15v.7q0 .02 0 .03-.01 0-.03 0 0 .01-.03.01-.02 0-.05 0-.03 0-.06 0-.02 0-.03 0-.01 0-.02-.01 0-.01 0-.02V2.43q0-.05.02-.07.03-.02.06-.02H39q.07 0 .11 0 .04 0 .08 0 .1.03.17.06.07.04.12.1.05.05.08.12.02.07.02.16 0 .08-.02.15-.02.07-.07.12-.04.05-.1.09-.06.03-.13.06.04.02.07.05.04.02.07.06.03.04.05.1.03.04.05.1l.15.37q.02.05.03.07 0 .02 0 .03zm-.33-1.18q0-.1-.05-.16-.04-.07-.14-.1-.04-.01-.08-.01t-.1 0h-.2v.56h.23q.08 0 .15-.02.06-.03.1-.06.05-.04.07-.1.02-.05.02-.1zM40.23 3.98q0 0 0 .02-.01 0-.03 0-.01.01-.03.01-.02 0-.06 0-.03 0-.05 0-.02 0-.03 0Q40 4 40 4t0-.02v-1.6q0-.02 0-.03 0 0 .02 0 .01-.01.03-.01.03 0 .05 0 .04 0 .06 0 .02 0 .03 0 .02 0 .02.01t0 .02zM41.93 3.92q0 .02 0 .04-.01.02-.03.03-.01.01-.03.02-.01 0-.03 0h-.07q-.04 0-.06 0-.03 0-.05-.03-.02-.02-.04-.05-.03-.03-.05-.08l-.53-.95q-.04-.08-.08-.16-.05-.08-.08-.15 0 .09 0 .19t0 .19v1q0 .02 0 .03 0 0-.02 0-.01.01-.03.01-.02 0-.06 0-.03 0-.05 0-.02 0-.03 0 0 0-.01-.01t-.01-.02V2.43q0-.05.03-.07.03-.02.06-.02h.1q.04 0 .07 0 .02.01.04.03.02.01.04.04.02.02.04.06l.41.74q.04.07.07.13.04.06.07.13.03.06.06.12t.07.12q0-.1 0-.21 0-.11 0-.22v-.9q0-.01 0-.02 0 0 .02-.01 0-.01.03-.01.02 0 .05 0 .03 0 .05 0 .02 0 .03 0 .01.01.02.02 0 0 0 .02zM43.64 2.57q0 .02 0 .04t-.01.03q0 .01-.02.02 0 0-.01 0-.02 0-.06-.02-.03-.03-.1-.06-.05-.03-.14-.05-.08-.02-.2-.02-.14 0-.25.05-.1.05-.18.14-.08.08-.12.2-.04.13-.04.27 0 .16.04.29.05.12.13.2.08.1.19.14.1.04.24.04.07 0 .15-.02.08-.02.15-.05v-.5h-.39q-.02 0-.03-.01-.01-.03-.01-.07 0-.03 0-.04 0-.02 0-.03.02-.01.02-.02.01 0 .02 0h.53q.02 0 .03 0 .02 0 .03.02.01 0 .02.03 0 .01 0 .04v.63q0 .04 0 .06-.02.03-.06.05-.04.01-.1.04-.05.02-.12.03-.06.02-.13.03-.06 0-.12 0-.2 0-.35-.06-.15-.06-.26-.17-.1-.1-.16-.26-.05-.16-.05-.35 0-.2.06-.36.06-.16.16-.28.11-.1.27-.17.15-.06.34-.06.1 0 .18.01.08.02.15.04.06.02.1.05.05.03.07.04.01.02.02.04 0 .03 0 .07z" style="-inkscape-font-specification:Calibri"/></g><path fill="none" d="M.53-1.06H9v8.47H.53z"/><g clip-path="url(#b)" transform="matrix(.0064 0 0 .00644 -.238 -1.843)"><g fill="#1a2451" aria-label="KPE" font-family="Bebas Neue" font-size="137.333" font-weight="400" style="-inkscape-font-specification:Arial"><path d="M480.13 579.48h47.21v126.6l60.09-126.6h47.2l-56.22 110.3 57.08 190.11h-49.35L546.23 746l-18.89 38.2v95.7h-47.2zM726.9 579.48h69.52q35.2 0 52.8 18.88 17.59 18.88 17.59 55.36v29.61q0 36.48-17.6 55.37-17.6 18.88-52.79 18.88h-22.31v122.31H726.9zm69.52 135.18q11.6 0 17.17-6.43 6-6.44 6-21.9v-35.61q0-15.45-6-21.89-5.58-6.44-17.17-6.44h-22.31v92.27zM959.93 579.48h128.75v42.91h-81.54v79.4h64.8v42.92h-64.8v92.27h81.54v42.91H959.93z" style="-inkscape-font-specification:'Bebas Neue'"/></g><g fill="#1a2451" aria-label="PUMPS AND TECHNICAL SUPPLY" font-family="Forum" font-size="16" font-weight="400" style="-inkscape-font-specification:Forum"><path d="M237.62 1156.2h7.1q5.55 0 8.4 2.16 2.9 2.1 2.9 6 0 2.1-1 3.75t-2.65 2.8q-1.6 1.1-3.65 1.7-2 .6-4 .6h-1.9v12.75q0 .4.1.9.1.45.3.85.25.4.5.7.3.3.7.3h.25v.5h-7.05v-.5h.25q.35 0 .65-.3.3-.3.5-.7.2-.4.3-.85.1-.5.1-.9v-26.65q0-.7-.4-1.6-.4-.9-1.15-1h-.25zm5.2 1.76v13.5h1.5q2 0 3.55-.55 1.6-.55 2.65-1.45 1.05-.9 1.6-2.05t.55-2.35q0-1.45-.5-2.7-.45-1.3-1.55-2.25-1.05-1-2.8-1.55-1.75-.6-4.3-.6zM277.77 1156.2h7.1v.5h-.25q-.4 0-.7.3-.3.26-.55.66-.2.4-.3.85-.1.45-.1.8v19.75q0 1.95.4 3.6.4 1.65 1.35 2.85.95 1.2 2.5 1.9 1.55.65 3.8.65 2.5 0 4-.8t2.3-2.05q.8-1.3 1.05-2.9.25-1.6.25-3.15v-19.85q0-.35-.1-.8-.1-.45-.35-.85-.2-.4-.5-.65-.3-.3-.65-.3h-.25v-.5h5.45v.5h-.25q-.4 0-.7.3-.25.25-.5.65-.2.4-.3.85-.1.45-.1.8v19.7q0 3.25-.8 5.35-.8 2.05-2.2 3.25-1.4 1.2-3.3 1.65-1.85.45-3.95.45-2.25 0-4.2-.5-1.9-.45-3.3-1.65t-2.2-3.25q-.8-2.1-.8-5.25v-19.75q0-.35-.1-.8-.1-.45-.35-.85-.2-.4-.5-.65-.3-.3-.65-.3h-.25zM351.37 1188.7h.25q.35 0 .65-.3.3-.3.5-.7.25-.4.35-.84.1-.5.1-.9v-26.3l-12.9 30.1-12.25-28.55v24.75q0 .4.1.9.1.45.3.85.25.4.55.7.3.3.7.3h.25v.5h-5.45v-.5h.25q.35 0 .65-.3.3-.3.5-.7.2-.4.3-.85.1-.5.1-.9v-26.65q0-.35-.1-.8-.1-.45-.3-.85-.2-.4-.5-.65-.3-.3-.65-.3h-.25v-.5h5.1l11.6 27.35 11.6-27.35h5.65v.5h-.25q-.4 0-.7.3-.3.25-.55.65-.2.4-.3.85-.1.45-.1.8v26.65q0 .4.1.9.1.45.3.85.25.4.55.7.3.3.7.3h.25v.5h-7.1zM380.77 1156.2h7.1q5.55 0 8.4 2.16 2.9 2.1 2.9 6 0 2.1-1 3.75t-2.65 2.8q-1.6 1.1-3.65 1.7-2 .6-4 .6h-1.9v12.75q0 .4.1.9.1.45.3.85.25.4.5.7.3.3.7.3h.25v.5h-7.05v-.5h.25q.35 0 .65-.3.3-.3.5-.7.2-.4.3-.85.1-.5.1-.9v-26.65q0-.7-.4-1.6-.4-.9-1.15-1h-.25zm5.2 1.76v13.5h1.5q2 0 3.55-.55 1.6-.55 2.65-1.45 1.05-.9 1.6-2.05t.55-2.35q0-1.45-.5-2.7-.45-1.3-1.55-2.25-1.05-1-2.8-1.55-1.75-.6-4.3-.6zM441.17 1180.36q0 2.5-1 4.3-1 1.75-2.6 2.85-1.55 1.1-3.55 1.6-1.95.5-3.9.5-2 0-3.45-.4-1.45-.4-2.65-.75-.8-.25-1.45-.4-.65-.2-1.3-.2v-5.7h.5q0 1.9.95 3.05 1 1.1 2.3 1.7 1.3.6 2.6.8 1.3.15 1.9.15 2.15 0 3.7-.6 1.55-.65 2.55-1.65 1-1.05 1.45-2.3.5-1.25.5-2.55 0-1.65-.7-2.75-.7-1.15-1.85-2-1.1-.85-2.55-1.45-1.45-.6-2.95-1.2-1.7-.65-3.35-1.35-1.65-.7-2.95-1.7-1.3-1.05-2.1-2.45-.8-1.45-.8-3.55 0-2.2.85-3.8.85-1.65 2.25-2.7 1.45-1.05 3.25-1.55 1.85-.55 3.75-.55 1.3 0 2.45.2 1.15.15 2.2.4.85.2 1.65.35.8.1 1.55.1v5.15h-.5q-.1-2.6-2.05-3.5-1.95-.95-5.4-.95-2 0-3.3.7-1.25.65-2 1.65-.75.95-1.05 2.1-.25 1.1-.25 1.95 0 1.4.6 2.4.65 1 1.7 1.75 1.05.75 2.4 1.35 1.4.6 2.9 1.15 1.7.65 3.45 1.4 1.75.75 3.1 1.85 1.4 1.1 2.25 2.7.9 1.6.9 3.9zM512.52 1188.7h.25q1.2 0 1.2-1.1 0-.4-.15-.84l-4.5-12.15h-8.75l-4.35 11.95q-.15.4-.15.75 0 .65.35 1.05.35.35.75.35h.25v.5h-5.55v-.5h.25q.65 0 1.25-.75.65-.8 1.05-1.85l11.45-30.5 11.2 30.2q.35 1 .95 1.95.65.95 1.65.95h.25v.5h-7.4zm-11.45-15.8h7.7l-3.85-10.44zM545.67 1188.7h.25v.5h-5.55v-.5h.25q.35 0 .65-.3.35-.3.55-.7.2-.4.3-.84.15-.5.15-.9v-26.65q0-.35-.1-.8-.05-.45-.25-.85-.2-.4-.55-.65-.35-.3-.85-.3h-.25v-.5h5.05l18.15 28.6v-25.5q0-.35-.15-.8-.1-.45-.35-.85-.2-.4-.5-.65-.3-.3-.7-.3h-.25v-.5h5.6v.5h-.25q-.4 0-.7.3-.3.25-.55.65-.2.4-.3.85-.1.45-.1.8v29.9h-3.1l-18.1-28.7v25.45q0 .4.1.9.1.45.3.85.25.4.55.7.3.3.7.3zM589.27 1188.7h.25q.35 0 .65-.3.3-.3.5-.7.25-.4.35-.84.1-.5.1-.9v-26.65q0-.35-.1-.8-.1-.45-.3-.85-.2-.4-.5-.65-.3-.3-.7-.3h-.25v-.5h9.65q3.95 0 7.1 1.4 3.15 1.35 5.3 3.7 2.2 2.3 3.35 5.3t1.15 6.25q0 3.05-1.1 6-1.1 2.9-3.3 5.2-2.2 2.3-5.5 3.75-3.3 1.4-7.65 1.4h-9zm23.15-15.1q0-3.2-1.15-6.04-1.15-2.85-3.25-4.95-2.05-2.15-4.9-3.4-2.8-1.25-6.1-1.25h-2.55v29.5h2.65q2.7 0 5.4-.8 2.75-.85 4.95-2.55 2.2-1.75 3.55-4.35 1.4-2.6 1.4-6.15zM680.77 1188.7h.25v.5h-7.1v-.5h.25q.4 0 .7-.3.3-.3.5-.7.25-.4.35-.84.1-.5.1-.9v-27.9h-5.8q-.8 0-1.4.35-.6.35-1 .9-.4.5-.6 1.15-.2.6-.2 1.2h-.5v-5.45h22.45v5.45h-.5q0-.6-.2-1.2-.2-.65-.6-1.15-.4-.55-1-.9t-1.4-.35h-5.9v27.9q0 .4.1.9.1.45.3.85.25.4.5.7.3.3.7.3zM709.02 1188.7h.25q.4 0 .7-.24.3-.3.5-.7.25-.4.35-.85.15-.45.15-.85v-26.75q0-.35-.15-.8-.1-.45-.35-.85-.2-.4-.5-.65-.3-.3-.7-.3h-.25v-.5h19.25v4.65h-.5q-.1-1.15-.9-2-.8-.9-2.5-.9h-10.05v12.65h8.3q1.15 0 1.9-.7.8-.7.8-1.65h.5v6.25h-.5q0-.9-.75-1.55t-1.95-.65h-8.3v15.15h10.95q.95 0 1.65-.45t1.15-1.05q.5-.65.7-1.35.25-.75.25-1.25h.5v5.85h-20.5zM768.37 1157.5q-3.7 0-6.45 1.36-2.7 1.3-4.5 3.45-1.8 2.1-2.7 4.75-.85 2.65-.85 5.25 0 2.95 1.15 5.8 1.15 2.8 3.15 5 2.05 2.15 4.75 3.5 2.7 1.3 5.85 1.3.9 0 2.1-.2 1.25-.2 2.45-.75 1.2-.6 2.2-1.65 1.05-1.05 1.6-2.75h.5v5.55q-.75 0-1.6.2-.8.2-1.8.45-1.3.35-2.9.65-1.55.3-3.3.3-4.35 0-7.65-1.5-3.3-1.5-5.5-3.9t-3.3-5.4q-1.1-3.05-1.1-6.15 0-3.1 1.1-6.15 1.1-3.05 3.35-5.45 2.25-2.45 5.65-3.95 3.4-1.5 8-1.5 1.65 0 2.95.3 1.35.3 2.4.6.75.25 1.35.4.65.1 1.25.1v5.55h-.5q-.3-1.55-1.1-2.55-.8-1.05-1.9-1.6-1.05-.55-2.3-.75-1.2-.25-2.35-.25zM819.37 1188.7h.25q.35 0 .65-.24.3-.3.5-.7.25-.45.35-.9.1-.5.1-.9v-13.6h-16v13.6q0 .4.1.9.1.45.3.85.2.4.45.7.3.3.7.3h.25v.5h-7v-.5h.25q.35 0 .65-.25.3-.3.5-.7.25-.45.35-.9.1-.5.1-.9v-26.65q0-.35-.1-.8-.1-.45-.3-.85-.2-.4-.5-.65-.3-.3-.7-.3h-.25v-.5h7v.5h-.25q-.4 0-.7.3-.3.25-.5.65-.15.4-.25.85-.1.45-.1.8v11.3h16v-11.3q0-.35-.1-.8-.1-.45-.3-.85-.2-.4-.5-.65-.3-.3-.7-.3h-.25v-.5h7v.5h-.25q-.4 0-.7.3-.3.25-.5.65-.15.4-.25.85-.1.45-.1.8v26.65q0 .4.1.9.15.45.35.85.2.4.45.7.3.3.65.3h.25v.5h-7zM853.27 1188.7h.25v.5h-5.55v-.5h.25q.35 0 .65-.3.35-.3.55-.7.2-.4.3-.84.15-.5.15-.9v-26.65q0-.35-.1-.8-.05-.45-.25-.85-.2-.4-.55-.65-.35-.3-.85-.3h-.25v-.5h5.05l18.15 28.6v-25.5q0-.35-.15-.8-.1-.45-.35-.85-.2-.4-.5-.65-.3-.3-.7-.3h-.25v-.5h5.6v.5h-.25q-.4 0-.7.3-.3.25-.55.65-.2.4-.3.85-.1.45-.1.8v29.9h-3.1l-18.1-28.7v25.45q0 .4.1.9.1.45.3.85.25.4.55.7.3.3.7.3zM897.12 1156.2h7.15v.5h-.25q-.35 0-.65.3-.3.26-.5.66-.2.35-.35.85-.1.45-.1.8v26.65q0 .4.1.9.1.45.3.85.25.4.5.7.3.3.7.3h.25v.5h-7.15v-.5h.25q.4 0 .7-.25.3-.3.5-.7.25-.45.35-.9.1-.5.1-.9v-26.65q0-.35-.1-.8-.1-.45-.35-.85-.2-.4-.5-.65-.3-.3-.7-.3h-.25zM944.17 1157.5q-3.7 0-6.45 1.36-2.7 1.3-4.5 3.45-1.8 2.1-2.7 4.75-.85 2.65-.85 5.25 0 2.95 1.15 5.8 1.15 2.8 3.15 5 2.05 2.15 4.75 3.5 2.7 1.3 5.85 1.3.9 0 2.1-.2 1.25-.2 2.45-.75 1.2-.6 2.2-1.65 1.05-1.05 1.6-2.75h.5v5.55q-.75 0-1.6.2-.8.2-1.8.45-1.3.35-2.9.65-1.55.3-3.3.3-4.35 0-7.65-1.5-3.3-1.5-5.5-3.9t-3.3-5.4q-1.1-3.05-1.1-6.15 0-3.1 1.1-6.15 1.1-3.05 3.35-5.45 2.25-2.45 5.65-3.95 3.4-1.5 8-1.5 1.65 0 2.95.3 1.35.3 2.4.6.75.25 1.35.4.65.1 1.25.1v5.55h-.5q-.3-1.55-1.1-2.55-.8-1.05-1.9-1.6-1.05-.55-2.3-.75-1.2-.25-2.35-.25zM994.32 1188.7h.25q1.2 0 1.2-1.1 0-.4-.15-.84l-4.5-12.15h-8.75l-4.35 11.95q-.15.4-.15.75 0 .65.35 1.05.35.35.75.35h.25v.5h-5.55v-.5h.25q.65 0 1.25-.75.65-.8 1.05-1.85l11.45-30.5 11.2 30.2q.35 1 .95 1.95.65.95 1.65.95h.25v.5h-7.4zm-11.45-15.8h7.7l-3.85-10.44zM1022.22 1188.7h.25q.4 0 .7-.24.3-.3.5-.7.25-.4.35-.85.15-.45.15-.85v-26.75q0-.35-.15-.8-.1-.45-.35-.85-.2-.4-.5-.65-.3-.3-.7-.3h-.25v-.5h7.2v.5h-.25q-.4 0-.7.3-.3.25-.5.65t-.35.85q-.1.45-.1.8v28.05h10.95q.95 0 1.65-.45t1.15-1.1q.5-.7.7-1.45.25-.8.25-1.45h.5v6.3h-20.5zM1113.72 1180.36q0 2.5-1 4.3-1 1.75-2.6 2.85-1.55 1.1-3.55 1.6-1.95.5-3.9.5-2 0-3.45-.4-1.45-.4-2.65-.75-.8-.25-1.45-.4-.65-.2-1.3-.2v-5.7h.5q0 1.9.95 3.05 1 1.1 2.3 1.7 1.3.6 2.6.8 1.3.15 1.9.15 2.15 0 3.7-.6 1.55-.65 2.55-1.65 1-1.05 1.45-2.3.5-1.25.5-2.55 0-1.65-.7-2.75-.7-1.15-1.85-2-1.1-.85-2.55-1.45-1.45-.6-2.95-1.2-1.7-.65-3.35-1.35-1.65-.7-2.95-1.7-1.3-1.05-2.1-2.45-.8-1.45-.8-3.55 0-2.2.85-3.8.85-1.65 2.25-2.7 1.45-1.05 3.25-1.55 1.85-.55 3.75-.55 1.3 0 2.45.2 1.15.15 2.2.4.85.2 1.65.35.8.1 1.55.1v5.15h-.5q-.1-2.6-2.05-3.5-1.95-.95-5.4-.95-2 0-3.3.7-1.25.65-2 1.65-.75.95-1.05 2.1-.25 1.1-.25 1.95 0 1.4.6 2.4.65 1 1.7 1.75 1.05.75 2.4 1.35 1.4.6 2.9 1.15 1.7.65 3.45 1.4 1.75.75 3.1 1.85 1.4 1.1 2.25 2.7.9 1.6.9 3.9zM1135.47 1156.2h7.1v.5h-.25q-.4 0-.7.3-.3.26-.55.66-.2.4-.3.85-.1.45-.1.8v19.75q0 1.95.4 3.6.4 1.65 1.35 2.85.95 1.2 2.5 1.9 1.55.65 3.8.65 2.5 0 4-.8t2.3-2.05q.8-1.3 1.05-2.9.25-1.6.25-3.15v-19.85q0-.35-.1-.8-.1-.45-.35-.85-.2-.4-.5-.65-.3-.3-.65-.3h-.25v-.5h5.45v.5h-.25q-.4 0-.7.3-.25.25-.5.65-.2.4-.3.85-.1.45-.1.8v19.7q0 3.25-.8 5.35-.8 2.05-2.2 3.25-1.4 1.2-3.3 1.65-1.85.45-3.95.45-2.25 0-4.2-.5-1.9-.45-3.3-1.65t-2.2-3.25q-.8-2.1-.8-5.25v-19.75q0-.35-.1-.8-.1-.45-.35-.85-.2-.4-.5-.65-.3-.3-.65-.3h-.25zM1182.12 1156.2h7.1q5.55 0 8.4 2.16 2.9 2.1 2.9 6 0 2.1-1 3.75t-2.65 2.8q-1.6 1.1-3.65 1.7-2 .6-4 .6h-1.9v12.75q0 .4.1.9.1.45.3.85.25.4.5.7.3.3.7.3h.25v.5h-7.05v-.5h.25q.35 0 .65-.3.3-.3.5-.7.2-.4.3-.85.1-.5.1-.9v-26.65q0-.7-.4-1.6-.4-.9-1.15-1h-.25zm5.2 1.76v13.5h1.5q2 0 3.55-.55 1.6-.55 2.65-1.45 1.05-.9 1.6-2.05t.55-2.35q0-1.45-.5-2.7-.45-1.3-1.55-2.25-1.05-1-2.8-1.55-1.75-.6-4.3-.6zM1222.22 1156.2h7.1q5.55 0 8.4 2.16 2.9 2.1 2.9 6 0 2.1-1 3.75t-2.65 2.8q-1.6 1.1-3.65 1.7-2 .6-4 .6h-1.9v12.75q0 .4.1.9.1.45.3.85.25.4.5.7.3.3.7.3h.25v.5h-7.05v-.5h.25q.35 0 .65-.3.3-.3.5-.7.2-.4.3-.85.1-.5.1-.9v-26.65q0-.7-.4-1.6-.4-.9-1.15-1h-.25zm5.2 1.76v13.5h1.5q2 0 3.55-.55 1.6-.55 2.65-1.45 1.05-.9 1.6-2.05t.55-2.35q0-1.45-.5-2.7-.45-1.3-1.55-2.25-1.05-1-2.8-1.55-1.75-.6-4.3-.6zM1262.37 1188.7h.25q.4 0 .7-.24.3-.3.5-.7.25-.4.35-.85.15-.45.15-.85v-26.75q0-.35-.15-.8-.1-.45-.35-.85-.2-.4-.5-.65-.3-.3-.7-.3h-.25v-.5h7.2v.5h-.25q-.4 0-.7.3-.3.25-.5.65t-.35.85q-.1.45-.1.8v28.05h10.95q.95 0 1.65-.45t1.15-1.1q.5-.7.7-1.45.25-.8.25-1.45h.5v6.3h-20.5zM1301.02 1156.2h6.9v.5q-.35.06-.65.3-.3.26-.3.76 0 .25.15.55l7.5 13.15 7.2-12.45q.2-.4.25-.6.1-.2.1-.5-.1-.8-.6-1-.45-.2-.55-.2v-.5h5.35v.5q-.75 0-1.55.95-.75.9-1.3 1.85l-7.8 13.5v12.95q0 .4.1.85.15.45.35.9.2.4.5.7.3.3.7.3h.25v.5h-7.15v-.5h.25q.4 0 .7-.25.3-.3.5-.7.25-.45.35-.9.1-.5.1-.9v-12.5l-8.05-13.8q-.25-.4-.6-.9t-.75-.95q-.4-.45-.85-.75-.45-.35-.85-.35h-.25z"/></g></g><g clip-path="url(#c)" transform="matrix(.0064 0 0 .00644 -.238 -1.843)"><path fill="#ffbd4a" d="M156.25 474.82h1250v12.5h-1250z"/></g><g clip-path="url(#d)" transform="matrix(.0064 0 0 .00644 -.238 -1.843)"><path fill="#ffbd4a" d="M156.25 1070.57h1250v12.5h-1250z"/></g></svg>