<svg xmlns="http://www.w3.org/2000/svg" width="162" height="24" viewBox="0 0 42.862 6.35"><g fill="#004684"><path d="M.57.47v5.28h6.2V.47h-3.1zm.2.2h5.8v4.88H.78V3.1zm.65.4c-.26 0-.27 0-.23.18.15.82.18 1.14.18 1.9 0 .47-.05 1.1-.1 1.4-.1.44-.1.58-.03.62.1.07.25.07.36 0 .06-.03.1-.33.1-.97l.02-.9.26.4c.33.53.9 1.12 1.3 1.3.26.14.42.16 1 .16.75 0 .86-.06.7-.34-.05-.1-.13-.12-.57-.12-.27 0-.6-.04-.75-.08-.37-.1-.9-.63-1.2-1.2l-.24-.45.12-.3c.15-.38.57-.78 1.25-1.18.3-.2.56-.36.56-.38 0-.1-.5-.06-.78.04-.55.2-1 .56-1.34 1.1l-.3.5v-1.7zm4.18.13c-.16 0-.37.02-.6.07-1.4.32-2.06.78-1.66 1.14.18.18.27.62.27 1.4 0 .37.03.7.05.72.03.03.14.04.25.03l.2-.02.04-1.12.85-.8c.82-.82 1-1.06.9-1.3-.03-.06-.14-.1-.3-.1zm-1.08.73c.07 0 .1.05.15.13.06.12.03.22-.18.64-.15.27-.3.5-.32.52-.02.02-.05-.08-.05-.2 0-.26-.17-.7-.27-.7-.16 0-.02-.13.27-.26.2-.08.3-.13.4-.13zm.83.85c-.35 0-.7.18-.83.48-.2.47-.05.92.36 1.18.16.1.3.12.6.1.45 0 .5-.12.06-.14-.42 0-.7-.33-.47-.55.05-.04.14-.08.2-.08.2 0 .1-.16-.12-.2-.24-.04-.28-.25-.1-.43.12-.1.25-.13.48-.12.36 0 .4-.05.15-.16-.1-.05-.22-.08-.33-.08zM8.87 3q0 .02 0 .03 0 0-.02 0t-.04.02q0 0-.04 0t-.07 0q-.03 0-.05-.02 0 0-.02-.02l-.57-.77V3q0 .02 0 .03 0 0-.02 0T8 3.06q0 0-.04 0-.03 0-.05 0 0 0-.03 0 0 0 0-.02-.02 0-.02-.02V1.53q0 0 0-.02t.02 0q.02-.02.04-.02.03 0 .06 0t.04 0 .04 0q0 0 0 .02t.02.02v.7l.55-.7q.02 0 .03-.02t.02 0q0-.02.03-.02.02 0 .06 0 .03 0 .05 0 0 0 .02 0 0 0 0 .02.02 0 .02.02 0 0 0 .03-.02 0-.04.04l-.52.6.56.75q.02.03.02.04zM10.27 3q0 .02 0 .03t-.05.02q-.02 0-.06 0-.03 0-.05 0 0 0-.02 0 0 0-.02-.02 0 0 0-.03l-.15-.37q-.02-.06-.05-.1-.02-.06-.06-.1-.05-.04-.1-.06-.05-.02-.12-.02h-.14V3q0 .02 0 .03 0 0-.02 0 0 0-.03.02-.03 0-.06 0t-.05 0q-.03 0-.04 0 0 0-.02-.02t0-.02V1.58q0-.05.02-.06.03 0 .05 0h.34q.06 0 .1 0 .04 0 .07 0 .1 0 .17.04t.12.1.06.1q.02.08.02.16 0 .07-.02.14-.02.06-.06.1-.04.05-.1.1-.05.02-.12.05.04 0 .07.03.03.03.06.06.04.03.06.08.02.04.05.1l.15.34q.02.05.02.07zm-.3-1.08q0-.1-.05-.16-.04-.06-.14-.1-.03 0-.06 0-.04 0-.1 0h-.18v.52h.2q.1 0 .15-.02.05-.02.1-.05.03-.03.04-.08.02-.05.02-.1zM10.88 3q0 .02 0 .03t-.02 0q0 0-.03.02-.02 0-.05 0-.03 0-.05 0-.02 0-.03 0 0 0-.02-.02t0-.02V1.53q0 0 0-.02 0 0 .02 0 0-.02.03-.02.02 0 .05 0 .03 0 .05 0 .02 0 .03 0 .02 0 .02.02t0 .02zM12.24 2.6q0 .12-.04.2-.04.1-.1.15-.1.06-.18.1-.1.02-.2.02t-.16-.02q-.06 0-.12-.03-.05-.02-.08-.04-.04-.02-.05-.03 0-.02 0-.04-.02 0-.02-.05 0-.03 0-.04 0 0 0-.02 0 0 .02-.02 0 0 .02 0t.05.02q.03.02.08.04.04.03.1.05.08.02.17.02.07 0 .12-.03.06-.02.1-.05.04-.03.06-.08.02-.05.02-.1 0-.08-.03-.12-.04-.05-.1-.1-.04-.02-.1-.05-.06-.03-.13-.06-.07-.02-.13-.06t-.1-.1-.1-.1q-.02-.07-.02-.17t.03-.17q.04-.08.1-.13.07-.05.15-.08.1-.04.2-.04.04 0 .1 0 .05.02.1.04.04 0 .08.03.03.02.04.03.02 0 .02.02 0 0 0 .02 0 0 0 .02 0 0 0 .04 0 .02 0 .04 0 0 0 .02t0 .02q0 0-.02 0 0 0-.04 0-.03-.03-.07-.05-.03-.03-.1-.05-.05 0-.12 0-.06 0-.1 0-.06.02-.1.05-.02.03-.03.07-.02.04-.02.08 0 .07.03.1.03.06.08.1.05.03.1.06.08.04.14.07.07.03.13.07.08.04.13.1.05.04.08.1.04.07.04.17zM14.33 3q0 .02 0 .03t-.02 0q0 0-.02.02-.02 0-.05 0-.03 0-.05 0-.02 0-.03 0 0 0-.02-.02t0-.02V1.67l-.56 1.36q0 .02-.03.02 0 0-.03 0 0 0-.03 0-.02 0-.04 0t-.03 0q0 0-.02 0 0 0 0-.02l-.54-1.36V3q0 .02 0 .03t-.02 0q-.02 0-.04.02 0 0-.04 0-.03 0-.05 0-.03 0-.04 0 0 0-.02-.02 0 0 0-.02V1.6q0-.05.02-.07.03 0 .06 0h.13q.04 0 .07 0t.05.02q.02 0 .03.04.02.02.03.05l.45 1.14.47-1.12q.02-.04.03-.07.02-.02.04-.04.02 0 .04 0t.05 0h.14q.02 0 .04 0 0 0 .02 0 .02.02.02.04 0 0 0 .04zM16.02 2.97q0 .03 0 .04 0 .03 0 .04 0 0-.04 0-.02 0-.05 0-.04 0-.06 0-.03 0-.04 0 0 0-.02 0 0-.02 0-.03l-.13-.37h-.65L14.9 3q0 .02 0 .03-.02 0-.03 0 0 .02-.03.02-.02 0-.06 0-.03 0-.06 0-.02 0-.03 0-.02-.02-.02-.04 0 0 .02-.03l.52-1.45q0 0 0-.02.02 0 .03 0 .02-.02.04-.02t.05 0q.04 0 .07 0 .02 0 .04 0 0 0 .02.02 0 0 0 .02zm-.67-1.28l-.27.77h.54zM18 1.94q0 .12-.04.2t-.1.17q-.08.08-.2.1-.1.05-.24.05h-.17V3q0 .02 0 .03 0 0-.03 0 0 0-.03.02-.03 0-.06 0t-.05 0q-.03 0-.04 0 0 0-.02-.02t0-.02V1.58q0-.04.02-.06.03-.02.06-.02h.33q.06 0 .1 0 .05 0 .1.03.07.02.14.06.06.04.1.1.05.05.07.12.03.07.03.16zm-.22.02q0-.1-.04-.16-.03-.06-.1-.1-.04-.03-.1-.04-.05 0-.1 0h-.2v.62h.2q.1 0 .15-.02.05-.03.1-.07.04-.05.06-.1.02-.07.02-.14zM19.3 2.96q0 .02-.02.04 0 0 0 .02 0 0-.02.02 0 0-.02 0h-.74q-.03 0-.06 0-.02-.03-.02-.08v-1.4q0-.04.02-.06.03 0 .06 0h.73q0 0 .02 0 0 0 .02 0t0 .03q0 .02 0 .04 0 .03 0 .04 0 .03 0 .04 0 0-.02 0 0 .02-.02.02h-.6v.5h.52q0 0 .02 0 0 .02.02.03 0 0 0 .03 0 .02 0 .04-.02.02-.02.03-.02 0-.03 0h-.52v.57h.6q.02 0 .03 0 0 0 0 .02.02 0 .02.02 0 0 0 .04zM20.76 3q0 .02 0 .03t-.05.02q0 0-.05 0-.03 0-.05 0-.02 0-.03 0 0 0-.02-.02 0 0 0-.03l-.15-.37q-.03-.06-.06-.1-.02-.06-.06-.1-.04-.04-.1-.06-.04-.02-.1-.02h-.15V3q0 .02 0 .03 0 0-.02 0 0 0-.02.02-.02 0-.05 0-.03 0-.05 0-.02 0-.03 0 0 0-.02-.02t0-.02V1.58q0-.05.02-.06.03 0 .05 0h.33q.06 0 .1 0 .04 0 .07 0 .1 0 .16.04.07.04.12.1.05.04.07.1.02.08.02.16 0 .07-.02.14-.02.06-.06.1-.05.05-.1.1-.06.02-.13.05.04 0 .07.03.03.03.06.06t.05.08q.02.04.05.1l.14.34q.02.05.02.07zm-.3-1.08q0-.1-.05-.16-.03-.06-.13-.1-.03 0-.06 0t-.1 0h-.17v.52h.2q.1 0 .15-.02.06-.02.1-.05.04-.03.05-.08.02-.05.02-.1zM22.18 3q0 .02 0 .03 0 0-.02 0t-.03.02q-.02 0-.05 0-.04 0-.07 0-.02 0-.03-.02 0 0-.02-.02l-.58-.77V3q0 .02 0 .03 0 0-.02 0 0 0-.03.02-.02 0-.05 0-.03 0-.05 0-.02 0-.03 0-.02 0-.03-.02 0 0 0-.02V1.53q0 0 0-.02t.02 0q0-.02.02-.02t.05 0 .05 0q.02 0 .03 0 .02 0 .02.02t0 .02v.7l.56-.7q0 0 0-.02t.04 0q0-.02.03-.02.02 0 .05 0 .03 0 .05 0 .02 0 .03 0 0 0 .02.02 0 0 0 .02 0 0 0 .03 0 0-.03.04l-.52.6.55.75q.03.03.03.04zM23.72 2.97q0 .03 0 .04 0 .03 0 .04 0 0-.03 0t-.07 0q-.04 0-.06 0-.02 0-.03 0-.02 0-.02 0 0-.02 0-.03l-.14-.37h-.65L22.6 3q0 .02 0 .03-.02 0-.03 0 0 .02-.03.02-.02 0-.05 0-.05 0-.07 0-.02 0-.03 0 0-.02 0-.04 0 0 0-.03l.52-1.45q0 0 0-.02.02 0 .04 0 0-.02.03-.02.02 0 .06 0 .03 0 .06 0 .02 0 .04 0t.02.02.02.02zm-.67-1.28l-.27.77h.54zM24.92 2.6q0 .12-.04.2-.04.1-.1.15-.1.06-.18.1-.1.02-.2.02t-.16-.02q-.06 0-.12-.03-.05-.02-.08-.04-.04-.02-.05-.03-.03-.02-.03-.04 0 0 0-.05 0-.03 0-.04 0 0 0-.02 0 0 0-.02.02 0 .03 0 .02 0 .05.02.03.02.07.04.05.03.12.05.07.02.16.02.07 0 .12-.03.06-.02.1-.05.04-.03.06-.08.02-.05.02-.1 0-.08-.03-.12t-.08-.1q-.06-.02-.12-.05-.06-.03-.13-.06-.07-.02-.13-.06-.06-.04-.1-.1t-.1-.1Q24 1.96 24 1.86t.03-.17q.04-.08.1-.13.07-.05.15-.08.1-.04.2-.04.04 0 .1 0 .05.02.1.04.04 0 .08.03.03.02.04.03.02 0 .02.02 0 0 0 .02 0 0 0 .02 0 0 0 .04 0 .02 0 .04 0 0 0 .02t0 .02q0 0-.02 0t-.04 0q-.03-.03-.07-.05-.05-.03-.1-.05-.07 0-.14 0-.06 0-.1 0-.06.02-.1.05-.02.03-.04.07t0 .08q0 .07.02.1.03.06.08.1.05.03.1.06.08.04.14.07.07.03.13.07.06.04.1.1.06.04.1.1.02.07.02.17zM26.46 2.97q0 .03 0 .04 0 .03 0 .04 0 0-.03 0-.02 0-.06 0-.04 0-.06 0 0 0-.02 0 0 0-.02 0 0-.02 0-.03l-.14-.37h-.65l-.13.38q0 .02 0 .03 0 0-.02 0-.02.02-.04.02t-.05 0q-.04 0-.06 0-.02 0-.03 0 0-.02 0-.04 0 0 0-.03l.52-1.45q0 0 .02-.02 0 0 .02 0 .02-.02.04-.02t.06 0 .06 0q.03 0 .04 0 .02 0 .03.02 0 0 0 .02zM25.8 1.7l-.28.77h.54zM28.35 2.96q0 .02 0 .04 0 0 0 .02 0 0-.02.02 0 0-.02 0h-.74q-.02 0-.05 0 0-.03 0-.08v-1.4q0-.04 0-.06.04 0 .06 0h.74q0 0 .02 0t.02.03q0 .02 0 .04 0 .03 0 .04 0 .03 0 .04 0 0-.02 0 0 .02-.02.02h-.6v.5h.52q.02 0 .03 0 0 .02 0 .03 0 0 0 .03 0 .02 0 .04t0 .03q0 0-.02 0h-.54v.57h.6q.02 0 .03 0 0 0 0 .02.02 0 .02.02 0 0 0 .04zM29.97 2.96q0 .02 0 .04-.02.02-.03.03 0 0-.03 0t-.02.02h-.06q-.04 0-.06 0-.02-.02-.04-.03-.02-.02-.05-.05-.02-.03-.04-.08l-.5-.9q-.03-.06-.07-.14-.04-.07-.07-.14h-.02q0 .08 0 .17 0 .08 0 .17V3q0 .02 0 .03-.02 0-.04.02-.02 0-.05 0-.04 0-.06 0-.02 0-.03 0 0 0 0-.02 0 0 0-.02V1.58q0-.04.02-.06.03 0 .06 0h.1q.03 0 .05 0 .03 0 .05 0 0 .03.03.05.03.02.05.06l.38.7q.03.06.07.12.03.06.06.12t.06.1q.03.06.06.12 0-.1 0-.2t0-.2v-.84q0 0 0-.02.03 0 .04-.02.02 0 .05 0 .03 0 .05 0 .02 0 .03 0 0 .02.02.02t0 .02zM31.66 1.7q0 .02 0 .04 0 0 0 .03 0 0-.02 0t-.02.02q0 0-.05-.04-.03-.02-.1-.05-.04 0-.12-.04-.08-.02-.2-.02-.12 0-.22.05-.1.03-.17.12-.07.08-.1.2-.05.1-.05.24 0 .15.05.27.04.1.12.2.07.07.17.1.1.05.23.05.07 0 .14 0 .1-.03.15-.07v-.44h-.36q-.03 0-.04-.02 0-.02 0-.06 0-.03 0-.04 0-.02 0-.03t.03 0h.48q.02 0 .03 0 .02 0 .03 0 0 .02.02.04 0 0 0 .03v.6q0 .03 0 .05-.02.03-.05.04-.04.02-.1.04-.05.02-.1.04-.06 0-.12.02-.06 0-.12 0-.18 0-.33-.05-.14-.05-.24-.15-.1-.1-.16-.25t-.05-.32q0-.2.05-.34.05-.15.16-.25.1-.12.25-.18.14-.06.32-.06.1 0 .16.02t.14.04q.06.02.1.04.05.03.06.04.02.02.02.04t0 .06zM32.36 3q0 .02 0 .03t-.02 0q-.02 0-.04.02-.02 0-.05 0-.03 0-.05 0-.02 0-.03 0 0 0-.02-.02t0-.02V1.53q0 0 0-.02 0 0 .02 0 .02-.02.04-.02.03 0 .05 0 .03 0 .05 0 .02 0 .04 0 0 0 0 .02t.02.02zM34.05 2.96q0 .02 0 .04t-.03.03q0 0-.02 0t-.04.02h-.06q-.03 0-.06 0-.02-.02-.04-.03-.02-.02-.04-.05-.02-.03-.05-.08l-.48-.9q-.04-.06-.08-.14-.04-.07-.07-.14 0 .08 0 .17 0 .08 0 .17V3q0 .02 0 .03 0 0-.02 0 0 0-.03.02-.02 0-.05 0-.03 0-.05 0 0 0-.02 0t-.02-.02q0 0 0-.02V1.58q0-.04.02-.06.03 0 .06 0h.1q.03 0 .06 0 .02 0 .04 0 .02.03.03.05 0 .02.03.06l.38.7q.05.06.08.12t.06.12.06.1q.03.06.06.12 0-.1 0-.2t0-.2v-.84q0 0 0-.02t.02 0q0 0 .03-.02.03 0 .06 0 .02 0 .04 0t.03 0q0 .02.02.02t0 .02zM35.44 2.96q0 .02 0 .04 0 0 0 .02-.02 0-.03.02h-.75q-.03 0-.05 0-.03-.03-.03-.08v-1.4q0-.04.03-.06.02 0 .05 0h.74q0 0 .02 0t0 .03q0 .02 0 .04 0 .03 0 .04 0 .03 0 .04 0 0-.02 0 0 .02 0 .02h-.62v.5h.52q0 0 .02 0 .02.02.02.03 0 0 0 .03 0 .02 0 .04t0 .03q0 0-.02 0 0 0-.02 0h-.52v.57h.62q.02 0 .03.02 0 0 0 .02 0 0 0 .04zM36.75 2.96q0 .02 0 .04 0 0-.02.02 0 0 0 .02-.02 0-.03 0h-.74q-.03 0-.06 0-.02-.03-.02-.08v-1.4q0-.04.02-.06.03 0 .06 0h.74q.02 0 .03 0t0 .03q0 .02 0 .04 0 .03 0 .04 0 .03 0 .04 0 0-.02 0 0 .02 0 .02h-.6v.5h.5q.02 0 .03 0 0 .02.02.03 0 0 0 .03 0 .02 0 .04t0 .03q-.02 0-.02 0t-.02 0h-.5v.57h.6q0 0 .02 0 0 0 0 .02.02 0 .02.02 0 0 0 .04zM38.22 3q0 .02 0 .03t-.02 0-.03.02q-.02 0-.06 0-.02 0-.04 0t-.03 0q0 0-.02-.02 0 0 0-.03l-.14-.37q-.03-.06-.06-.1-.02-.06-.06-.1-.04-.04-.1-.06-.04-.02-.1-.02h-.15V3q0 .02-.02.03-.02 0-.04.02-.02 0-.05 0-.04 0-.06 0-.02 0-.03 0 0 0 0-.02T37.17 3V1.58q0-.05.03-.06.03 0 .06 0h.33q.05 0 .1 0 .03 0 .06 0 .1 0 .16.04.07.04.12.1t.07.1q.03.08.03.16 0 .07-.02.14 0 .06-.05.1-.04.05-.1.1-.05.02-.12.05.04 0 .07.03.03.03.06.06.02.03.05.08.03.04.06.1l.14.34q0 .05.02.07zm-.3-1.08q0-.1-.05-.16-.04-.06-.14-.1-.03 0-.07 0-.03 0-.1 0h-.17v.52h.2q.07 0 .13-.02t.1-.05q.04-.03.06-.08 0-.05 0-.1zM38.83 3q0 .02 0 .03t-.02 0q0 0-.02.02-.02 0-.05 0-.03 0-.05 0-.02 0-.03 0 0 0-.02-.02t0-.02V1.53q0 0 0-.02 0 0 .02 0 0-.02.03-.02.02 0 .05 0 .03 0 .05 0 .02 0 .03 0 .02 0 .03.02t0 .02zM40.53 2.96q0 .02 0 .04-.02.02-.03.03 0 0-.03 0t-.03.02h-.07q-.03 0-.05 0-.02-.02-.05-.03-.02-.02-.04-.05-.02-.03-.04-.08l-.5-.9q-.04-.06-.08-.14-.04-.07-.07-.14 0 .08 0 .17 0 .08 0 .17V3q0 .02 0 .03 0 0-.02 0 0 0-.03.02-.02 0-.05 0-.03 0-.05 0-.02 0-.03 0 0 0 0-.02-.02 0-.02-.02V1.58q0-.04.03-.06.02 0 .06 0h.1q.03 0 .05 0 .02 0 .03 0 .02.03.04.05.02.02.04.06l.4.7q.02.06.05.12.04.06.07.12t.06.1q.03.06.05.12 0-.1 0-.2t0-.2v-.84q0 0 0-.02t.02 0q.02 0 .03-.02.02 0 .05 0 .03 0 .05 0 .02 0 .03 0 .02.02.02.02t0 .02zM42.22 1.7q0 .02 0 .04 0 0 0 .03-.02 0-.02 0t-.02.02q0 0-.05-.04-.03-.02-.1-.05-.04 0-.12-.04-.07-.02-.18-.02-.13 0-.23.05t-.18.12q-.08.08-.1.2-.05.1-.05.24 0 .15.04.27.05.1.13.2.07.07.17.1.1.05.22.05.08 0 .15 0 .07-.03.14-.07v-.44h-.35q-.02 0-.03-.02 0-.02 0-.06 0-.03 0-.04 0-.02 0-.03.02 0 .03 0h.5q0 0 .02 0 0 0 .02 0 0 .02 0 .04 0 0 0 .03v.6q0 .03 0 .05 0 .03-.04.04-.04.02-.1.04-.05.02-.1.04-.07 0-.13.02-.06 0-.1 0-.2 0-.34-.05-.15-.05-.25-.15-.1-.1-.15-.25-.05-.14-.05-.32 0-.2.06-.34.06-.15.16-.25.1-.12.25-.18t.32-.06q.1 0 .17.02.07 0 .13.04.06.02.1.04.05.03.06.04 0 .02 0 .04.02.02.02.06zM8.48 4.36q-.08 0-.14 0v.1l-.02.08v.19q0 .02-.03.03-.04 0-.1 0-.05 0-.05-.08 0 0 0-.02v-.27l.02-.06v-.31L8.2 4v-.14h-.03l-.07.02h-.08l-.1.04q-.02 0-.03-.03-.02-.02-.03-.03 0 0 0-.02 0-.04.07-.07H8l.04-.02.08-.02q.05 0 .07-.02l.03-.02h.06l.04.02H8.5q.04 0 .06 0l.02.02h.06q.12.03.17.1.06.06.08.1.02.06.02.1 0 .1-.06.15t-.12.1q-.08.02-.13.04-.06 0-.12.02zm-.13-.1q.04 0 .1 0l.05-.03h.04q.03-.02.06-.04.02-.03.05-.05.03-.02.07-.07.04-.06.04-.1 0-.02-.03-.05-.02-.03-.06-.04-.05-.03-.1-.03t-.1-.02q0 0-.02 0-.04 0-.07.02-.02.06-.02.08v.28zM9.18 4.58q0 .03 0 .04 0 .02.02.05.03-.03.05-.05V4.6l.04-.07.02-.07v-.03l.03-.03q0-.02 0-.03 0-.02.02-.08 0-.06.03-.08 0-.02.07-.02.06 0 .06.02 0 .03 0 .04 0 0 0 .02t0 .07l-.02.1v.07l.02.06v.04q.02.02.04.02t.03 0l.02-.03h.02q.03-.03.04-.03 0 0 .02 0t.03 0q0 .03 0 .04-.02.03-.04.05l-.05.03q-.07.05-.12.05-.02 0-.05 0-.03-.02-.05-.04-.02-.02-.04-.08l-.03-.03v.02q-.04.08-.07.1-.02.03-.06.03h-.08q-.08 0-.1-.06-.04-.06-.04-.2V4.27l.02-.06q0-.04 0-.06.02 0 .05 0 0 0 .03 0t.04 0q.03 0 .03.02v.12l-.02.04v.2zM9.93 4.22v.08l.03-.05.02-.04q0 0 .03 0 .02 0 .04 0 0 0 .02 0t.04 0q.05 0 .06.03.02.02.04.06l.02-.02q.04-.08.07-.1.03-.04.08-.04t.08 0q.02.03.05.06.04.04.05.06 0 .02 0 .1v.19q0 .06 0 .08 0 .03.04.03 0 0 .04 0v-.02l.06-.02h.02q0 0 .02 0 0 .05 0 .07-.04 0-.1.03-.06.02-.1.02 0 0-.04 0-.05-.03-.07-.06-.02-.04-.03-.08t0-.06q0 0 0-.02v-.27q-.02 0-.03 0-.02 0-.03.03l-.02.02v.02l-.02.03q0 0-.02.04 0 .04-.02.07v.02l-.02.05v.07q0 .02-.02.03 0 .02 0 .04-.02.02-.04.02h-.04q-.04 0-.06-.02 0 0 0-.04V4.42q0-.02 0-.05 0-.03 0-.05-.03 0-.04 0-.02 0-.04.06l-.04.07q0 0 0 .03-.02.04-.03.06l-.02.1q0 .07 0 .1 0 0-.04 0 0 0-.05 0-.03-.02-.03-.1V4.34l.02-.04v-.11q0-.05 0-.06.02-.02.05-.02.03 0 .04 0 .03 0 .03.05 0 0 0 .02 0 0 0 .02zM10.97 4.16v.06q0 0 .03-.02 0 0 .03-.03l.02-.02q.03-.02.06-.02h.06q.05 0 .1.06.06.03.06.2v.07q-.02.05-.03.07t-.05.06q-.02.03-.05.05-.04.02-.07.02-.04 0-.06 0-.04 0-.1 0l-.02-.02V5.1h-.03q-.05.02-.08.02-.04 0-.05-.03V4.16l.02-.07q0-.06 0-.08.03-.02.06-.02 0 0 .02 0 0 0 .03 0t.04.03q0 0 0 .07zm0 .35q0 .04.03.06.03.03.06.03.06 0 .08-.08.02-.07.02-.12v-.12q0 0 0-.03-.02 0-.03 0 0 0-.03 0-.03.02-.04.04-.02.02-.05.08-.02.07-.04.13zM11.54 4.7q-.05-.04-.07-.05 0-.02 0-.04 0 0 0-.02.04-.02.04-.02.02 0 .08.05l.07.03q.02 0 .04 0 0 0 .03 0t.03-.02q0-.02-.05-.05l-.04-.02-.05-.04-.04-.05q0 0-.02 0 0-.02-.03-.05 0-.04 0-.1 0-.05.03-.1.05-.05.1-.07.03 0 .12 0 0 0 .03 0 .02 0 .03 0h.07q.06.02.07.05 0 .02 0 .04 0 .03 0 .04-.03 0-.03 0t-.02 0q-.02 0-.04 0 0-.02-.03-.02 0 0-.02 0-.03 0-.04 0 0 0-.04.03-.03 0-.03.06 0 .02 0 .04.03.02.04.03.02 0 .06.03l.05.03h.02l.05.04q.04.04.05.05 0 0 .02.04 0 .02 0 .03 0 .03 0 .05-.03.03-.07.05-.03.02-.1.02 0 0-.05 0t-.06 0q0-.02-.02-.02h-.03zM13.04 4.22v.02h.03q.05 0 .06.02v.04q-.02 0-.02.03t0 .08v.16q0 0 0 .03 0 .04.03.04 0 0 .04-.02.03-.02.04-.03l.05-.05q.02 0 .03 0t0 .04q0 0-.03.07-.03.05-.1.05-.02 0-.04 0t-.04-.02q-.04 0-.07-.07l-.03.02-.03.03v.02q-.04.03-.07.04-.03 0-.1 0-.1 0-.15-.04-.04-.05-.04-.16V4.4l.02-.05V4.3h.02l.02-.06.02-.03.03-.02q.04-.06.1-.06.03 0 .1.02.06 0 .1.03.02.02.04.05zm-.3.33v.02q0 .04 0 .05 0 0 0 .03.02.02.04.02t.03 0l.03-.02.02-.03V4.6l.03-.03.04-.06q0-.02 0-.06l.02-.02V4.3l.02-.02q0-.02-.02-.04-.03-.02-.06 0-.03 0-.05.02-.03.03-.05.1l-.02.03v.02q0 .03-.02.05 0 .02 0 .07zM13.5 4.24q0 0 0 .02v.05l.03-.04q.06-.1.1-.1.04 0 .07.02.04.02.05.02 0 0 .04.03.02.02.04.05.02.04.02.1v.21q.02.02.03 0 .02 0 .04 0l.03-.02H14q.03-.02.04 0 0 .04-.02.07-.02.02-.07.04-.04 0-.07 0-.1 0-.13 0t-.05-.1V4.35q0-.04 0-.05 0 0-.02-.03-.03 0-.05 0-.02.02-.04.07l-.04.07-.02.07v.04l-.02.04q0 .03 0 .05-.02 0-.02.02 0 .1-.06.1-.02 0-.05 0-.05-.03-.06-.05 0 0 0-.04v-.33l.02-.1q0-.06 0-.08.03-.02.07-.02.04 0 .06 0 0 .02 0 .04 0 0 0 .03zM14.3 4.12q.07 0 .1.07l.02-.03V3.74q0-.06.02-.07.02 0 .12 0 .05 0 .05.03 0 .02 0 .05-.02.03-.02.05 0 .03 0 .1v.14l-.02.04v.43q0 .04 0 .06 0 0 .02.02 0 0 .02 0 0 .02.02 0l.04-.02.05-.04.04-.02q0 0 .03 0 0 .02 0 .03 0 .02-.02.06l-.04.03v.03q-.05.03-.1.03-.02 0-.05-.02-.02 0-.05-.02l-.03-.03q-.04.03-.1.08-.04.06-.1.06 0 0-.03 0t-.05 0q-.04-.02-.06-.04-.03 0-.05-.02-.03-.02-.03-.03v-.04l-.02-.04q0-.03 0-.05v-.09q0-.06 0-.1.03-.04.04-.08v-.05q.04-.07.08-.1.03-.04.08-.04.02 0 .04.02zm-.1.4v.07q0 .02 0 .04t.02.03q0 0 .02 0 0 0 .03 0 0 0 .02-.03l.03-.05.02-.05.03-.05q.02-.05.02-.1 0-.04 0-.08 0-.05-.02-.07-.03-.02-.05-.02-.02 0-.04.02-.03.02-.04.05-.02.03-.03.05 0 0 0 .04-.02.02-.02.05 0 .03 0 .06zM15.82 3.88h-.04q-.02.04-.02.06 0 .02 0 .07v.13l-.02.04V4.6l-.02.06v.09q0 .02-.05.02-.08 0-.1 0 0-.02 0-.1V3.96l.02-.08h-.33q-.07 0-.1-.02-.04 0-.04-.03 0-.02 0-.03 0-.03 0-.03h.06l.06-.02h.15l.06-.02h.07l.07-.02h.18l.1-.02h.06q.06 0 .08 0 .02.02.04.06v.03q0 .04.02.05-.02.02-.05.02-.03 0-.06 0h-.12zM16.4 4.52q0 0-.02 0 0 0-.03 0v.03q0 .07 0 .1.02 0 .07 0 .02 0 .05 0h.04l.03-.02.04-.02q.02 0 .04-.02t.03-.03v-.02l.04-.03q.02 0 .03 0 .03 0 .03 0 0 .03 0 .04 0 .02-.03.07-.04.06-.07.08-.03.02-.07.04-.06.02-.08.03-.03 0-.04 0-.02 0-.04 0-.03 0-.06 0-.02 0-.1-.05-.07-.04-.08-.14v-.1q0-.05 0-.1 0-.07 0-.1.02-.04.04-.07l.02-.03q.02-.03.04-.05.02-.02.05-.02.02 0 .04 0 0 0 .05.02l.04.02q.06.03.1.06.02.02.04.05 0 .04 0 .07 0 .05 0 .08t-.04.04q0 0-.04.02-.02.02-.04.03 0 0-.06 0l-.05.02zm-.05-.08q.02 0 .04 0 0 0 .03-.02.02-.02.04-.04.03-.02.04-.05.02-.03.02-.05 0-.02 0-.03 0-.02-.03-.03-.03 0-.05 0-.03 0-.06.05-.03.04-.04.12zM17.1 4.36q0 0 0-.03 0 0 0-.02t0-.04q0 0 0-.02 0 0-.03 0t-.04.03l-.02.05q0 .06 0 .1-.02.02-.02.06v.02q0 .1.02.14.02.03.06.03.03 0 .08 0l.04-.02.04-.02h.02l.07-.04q.06-.05.07-.05 0 0 .02 0t.02.02q0 .02-.02.04-.02.04-.05.06-.03.02-.04.03 0 0-.06.03t-.12.03q-.04 0-.1-.02-.07-.02-.1-.04-.04-.02-.06-.06-.03-.04-.03-.08 0-.05 0-.12v-.11q.02-.06.02-.08 0-.02.04-.06.02-.05.05-.07.02-.02.05-.02 0 0 .02 0 0 0 .02 0l.04.02q.02 0 .05.02.02 0 .06.04.03.03.04.08.02.04.03.07 0 .02 0 .08 0 .1-.07.1-.02 0-.05 0-.03-.02-.03-.04 0 0-.02-.04v-.05zM17.65 4.25v.03q.03-.02.04-.04 0-.03.04-.04h.04q.02-.02.04-.02.03 0 .07.02.02.02.04.04.02 0 .03.05.02.02.02.06 0 .03 0 .1v.04q0 .1 0 .1.02.02.04.02t.07-.05l.02-.02q.02-.05.05-.05.02 0 .03 0 .02.02 0 .05v.03l-.03.03-.02.03q-.03.04-.05.06-.03 0-.05 0-.03 0-.1-.03-.08-.03-.1-.13v-.16q0-.03 0-.04 0-.02 0-.04 0 0-.02 0 0-.02-.03-.02t-.05.06l-.04.07q0 .04-.02.1-.02.05-.02.1 0 .07-.02.1 0 .02-.05.02-.03 0-.06 0t-.04-.04q0 0 0-.1v-.47l.02-.14v-.31q0-.03 0-.03 0-.04.05-.04.07 0 .1 0 0 .02 0 .05 0 0 0 .03t0 .04q0 .02 0 .03 0 .02 0 .04V4.1l-.02.05v.06zM18.43 4.24q0 0 0 .02v.05l.03-.04q.06-.1.1-.1.04 0 .08.02.03.02.04.02 0 0 .04.03.03.02.05.05.02.04.02.1v.21q-.02 0 0 0 0 .02.03 0 .02 0 .04 0l.04-.02h.03q.03-.02.04 0 0 .04-.02.07-.02.02-.06.04-.06 0-.1 0-.07 0-.1 0t-.07-.1V4.35q0-.04 0-.05 0 0-.02-.03-.02 0-.04 0 0 .02-.04.07l-.03.07-.03.07v.04l-.02.04q0 .03 0 .05 0 0 0 .02-.03.1-.07.1-.02 0-.06 0-.03-.03-.04-.05 0 0 0-.04V4.22q0-.06.03-.08.02-.02.06-.02.05 0 .07 0 0 .02 0 .04 0 0 0 .03zM19.04 4.06q0-.02 0-.03 0-.02 0-.02t0-.02q.02-.02.06-.05.04-.02.07-.02.04 0 .06.1v.04q0 .03-.02.06 0 .02-.06.02-.08 0-.1-.06zm-.02.5v-.25q.02-.03.03-.05.02-.02.04-.02t.03 0q.03 0 .04 0 .02 0 .02.02v.05l-.02.05v.28q0 .02 0 .03.02 0 .04 0l.05-.02.07-.03h.04q.02 0 .02 0 0 .03 0 .04 0 .02-.04.05l-.04.03q-.05.03-.12.03-.08 0-.13-.04t-.05-.12zM19.67 4.36q0 0 0-.03 0 0 0-.02t0-.04q0 0 0-.02 0 0-.02 0-.03 0-.05.03l-.02.05q0 .06-.02.1 0 .02 0 .06v.02q0 .1 0 .14.03.03.07.03.03 0 .08 0l.05-.02.04-.02.08-.04q.06-.05.07-.05.03 0 .04 0 0 0 0 .02t-.03.04q-.02.04-.05.06-.03.02-.04.03 0 0-.07.03-.05.03-.1.03t-.1-.02q-.07-.02-.1-.04-.04-.02-.07-.06-.02-.04-.03-.08 0-.05 0-.12v-.11q.02-.06.03-.08 0-.02.04-.06.03-.05.05-.07.02-.02.06-.02.03 0 .03 0l.05.02q.03 0 .05.02.03 0 .06.04.04.03.06.08 0 .04.02.07 0 .02 0 .08 0 .1-.06.1-.03 0-.06 0-.02-.02-.03-.04-.02 0-.02-.04v-.05zM20.5 4.22v.02h.02q.05 0 .06.02v.04q-.02 0-.02.03t0 .08v.12h-.02v.04q0 0 0 .03 0 .04.04.04 0 0 .04-.02.03-.02.04-.03l.05-.05q.02 0 .03 0t0 .04q0 0-.02.07-.03.05-.1.05-.02 0-.03 0t-.06-.02q-.03 0-.06-.07l-.02.02-.03.03-.02.02q-.03.03-.06.04-.03 0-.1 0-.1 0-.14-.04-.05-.05-.05-.16V4.4l.02-.05.02-.05.02-.06V4.2h.02l.02-.02q.05-.06.1-.06.04 0 .1.02.07 0 .1.03.03.02.05.05zm-.3.33v.02q0 .04 0 .05 0 0 0 .03 0 .02.03.02.02 0 .04 0v-.02l.03-.03V4.6l.04-.03.03-.06q0-.02.02-.06V4.3q0-.02 0-.04-.03-.02-.07 0-.03 0-.05.02-.03.03-.05.1l-.02.03v.02q0 .03 0 .05 0 .02 0 .07zM20.95 4.55q0 .07 0 .1.02 0 .03.03.02 0 .03 0 .02 0 .04 0l.05-.05h.03l.03-.02q0 0 .02 0 0 .03 0 .04 0 .03-.04.07l-.03.03q-.04.04-.1.04-.04 0-.1-.03-.05-.03-.07-.06-.02-.02-.03-.06V4l.02-.05v-.07q0 0 0-.03 0 0 0-.04.02 0 .02-.02 0 0 0-.02t0-.05q-.02 0 0-.03.04-.02.08-.02.06 0 .08 0 .02.02.02.04 0 0 0 .04-.02.03-.03.08v.04l-.02.05v.18l-.02.1v.2q0 .04 0 .08t0 .1zM21.67 4.66q-.03-.03-.05-.06 0-.03 0-.06v-.05q0-.04.04-.04h.02q.04.02.04.1 0 0 .03.03.03 0 .1.02.04 0 .08 0 .07 0 .18 0 .13-.03.16-.04.03 0 .1-.05V4.5q.02 0 .02 0 0-.02 0-.02l-.08-.02-.05-.02h-.08V4.4h-.06l-.05-.02q-.04 0-.06 0l-.03-.02h-.04v-.02h-.03l-.05-.02q-.04-.02-.06-.03-.03 0-.05-.03-.03-.03-.06-.1-.04-.06-.04-.1 0-.05 0-.08.03-.04.05-.08.04-.03.05-.05.02-.02.05-.04l.05-.04.04-.04.04-.02.04-.02.04-.02h.04q.06-.03.1-.03.07 0 .13.06l.03.04.05.05q0 0 .02.02 0 .02.04.05.02.03.04.06.02.04.02.07 0 .02 0 .04 0 0-.03.02-.02 0-.04 0 0 0-.03 0 0 0-.03-.04L22.33 4 22.3 4l-.02-.05-.02-.06q0-.05-.06-.05-.03 0-.07 0-.03.02-.04.03-.03 0-.08.03-.04.03-.1.07-.03.04-.06.08-.04.04-.05.07 0 .04 0 .06 0 .02.02.04.02 0 .06.02h.07v.02l.1.02h.02l.08.02q.1.02.14.03.03.03.07.04.04.02.1.05.05.02.05.1 0 .07-.06.12-.05.05-.1.07-.03 0-.12.03l-.05.02h-.33l-.02-.02h-.05q-.05-.03-.07-.04-.02-.02-.03-.04zM22.86 4.58q0 .03 0 .04 0 .02.02.05.03-.03.05-.05V4.6l.04-.07.03-.07v-.03l.03-.03q0-.02 0-.03 0-.02.02-.08 0-.06.03-.08.02-.02.08-.02.05 0 .05.02.02.03.02.04 0 0 0 .02t-.02.07v.27q.02.02.05.02 0 0 .02 0l.03-.03h.02q.03-.03.04-.03 0 0 .02 0t.03 0q0 .03 0 .04t-.03.05l-.04.03q-.06.05-.12.05 0 0-.04 0-.03-.02-.05-.04 0-.02-.03-.08V4.6l-.03.02q-.03.08-.06.1-.02.03-.06.03h-.07q-.08 0-.1-.06-.04-.06-.04-.2v-.15l.02-.08V4.2q0-.04.02-.06 0 0 .05 0t.05 0q.03 0 .03.02v.16l-.02.02v.18zM23.63 4.16v.06q0 0 .03-.02 0 0 .03-.03v-.02q0 0 .02 0 .02-.02.05-.02h.05q.05 0 .1.06.06.03.06.2v.07q-.02.05-.03.07t-.04.06q0 .03-.04.05-.04.02-.07.02-.05 0-.07 0-.04 0-.1 0l-.02-.02V5.1h-.02q-.05.02-.08.02-.04 0-.05-.03V4.24h.02V4.1q0-.06.02-.08 0-.02.04-.02 0 0 .02 0 0 0 .03 0 .02 0 .03.03 0 0 0 .07zm0 .35q0 .04.03.06.03.03.06.03.06 0 .08-.08.02-.07.02-.12v-.12q0 0 0-.03-.02 0-.03 0-.02 0-.04 0-.03.02-.04.04-.02.02-.05.08-.03.07-.05.13zM24.36 4.16v.06q0 0 .02-.02 0 0 .03-.03l.03-.02q0 0 .02 0 .02-.02.05-.02h.04q.05 0 .1.06.06.03.06.2v.07q-.02.05-.03.07 0 .02-.03.06-.03.03-.06.05-.03.02-.07.02-.02 0-.04 0-.04 0-.1 0l-.02-.02V5.1h-.04q-.04.02-.07.02-.04 0-.05-.03V4.16l.02-.07q0-.06.02-.08 0-.02.05-.02.02 0 .05 0 .02 0 .03.03 0 0 0 .07zm0 .35q0 .04.02.06.04.03.07.03.05 0 .07-.08.02-.07.02-.12v-.12q0 0 0-.03 0 0-.03 0 0 0-.02 0-.02.02-.04.04 0 .02-.04.08-.04.07-.05.13zM25.06 4.55q0 .07 0 .1 0 0 .03.03 0 0 .02 0 0 0 .02 0l.06-.05h.04l.02-.02q.02 0 .03 0 0 .03 0 .04 0 .03-.06.07l-.02.03q-.05.04-.1.04-.06 0-.1-.03-.07-.03-.1-.06 0-.02 0-.06v-.06l-.02-.06v-.47l.02-.03V3.88q0 0 0-.03 0 0 .02-.04 0 0 0-.02 0 0 0-.02t0-.05q0 0 .02-.03.02-.02.07-.02.06 0 .07 0 .02.02.02.04 0 0 0 .04-.02.03-.02.08v.09l-.02.08v.1l-.02.1v.2q0 .04 0 .08t0 .1zM25.64 4.65v-.08.03q-.03 0-.06.04-.02.03-.05.04-.03.02-.07.02-.05 0-.1-.02-.03-.03-.03-.06 0-.02 0-.05l-.02-.06q0-.04 0-.07 0-.02 0-.06 0-.07 0-.1t.02-.08q.02-.05.06-.05.03 0 .05.02.03.02.04.03 0 .02 0 .03t0 .05v.25q0 .03 0 .04 0 .02 0 .02.02 0 .03-.02 0 0 .04-.05l.02-.05v-.02q.02-.02.02-.04t0-.03l.02-.03.03-.08q0-.04 0-.06 0-.02.02-.06 0-.05 0-.07.02 0 .05 0 .02 0 .05 0 .04 0 .05 0 0 .02 0 .04t0 .03v.24l-.02.03V4.82l-.02.04v.08q0 0 0 .03 0 0-.03.03-.02.03-.05.05-.03 0-.08.02h-.03q-.07 0-.16-.05l-.06-.05q-.02 0-.04-.04 0 0 0-.02 0 0 .03 0 .02 0 .06 0 0 0 .06.04l.04.02.02.02q.03 0 .05 0 .04 0 .04-.03l.02-.05v-.2z"/></g></svg>