<?xml version="1.0" encoding="UTF-8" standalone="no"?>
<svg
   xmlns:dc="http://purl.org/dc/elements/1.1/"
   xmlns:cc="http://creativecommons.org/ns#"
   xmlns:rdf="http://www.w3.org/1999/02/22-rdf-syntax-ns#"
   xmlns:svg="http://www.w3.org/2000/svg"
   xmlns="http://www.w3.org/2000/svg"
   xmlns:sodipodi="http://sodipodi.sourceforge.net/DTD/sodipodi-0.dtd"
   xmlns:inkscape="http://www.inkscape.org/namespaces/inkscape"
   inkscape:version="1.0beta2 (2b71d25, 2019-12-03)"
   sodipodi:docname="page-not-found.svg"
   viewBox="0 0 666.66669 666.66669"
   height="666.66669"
   width="666.66669"
   xml:space="preserve"
   id="svg833"
   version="1.1"><metadata
     id="metadata839"><rdf:RDF><cc:Work
         rdf:about=""><dc:format>image/svg+xml</dc:format><dc:type
           rdf:resource="http://purl.org/dc/dcmitype/StillImage" /><dc:title></dc:title></cc:Work></rdf:RDF></metadata><defs
     id="defs837" /><sodipodi:namedview
     inkscape:current-layer="g841"
     inkscape:window-maximized="1"
     inkscape:window-y="25"
     inkscape:window-x="0"
     inkscape:cy="333.33334"
     inkscape:cx="333.33334"
     inkscape:zoom="0.83699997"
     showgrid="false"
     id="namedview835"
     inkscape:window-height="749"
     inkscape:window-width="1440"
     inkscape:pageshadow="2"
     inkscape:pageopacity="0"
     guidetolerance="10"
     gridtolerance="10"
     objecttolerance="10"
     borderopacity="1"
     inkscape:document-rotation="0"
     bordercolor="#666666"
     pagecolor="#ffffff" /><g
     transform="matrix(1.3333333,0,0,-1.3333333,0,666.66667)"
     inkscape:label="ink_ext_XXXXXX"
     inkscape:groupmode="layer"
     id="g841"><g
       id="g1591"><path
         inkscape:connector-curvature="0"
         id="path845"
         style="fill:#ffffff;fill-opacity:1;fill-rule:nonzero;stroke:none;stroke-width:0.1"
         d="M 500,0 H 0 V 500 H 500 V 0" /><path
         inkscape:connector-curvature="0"
         id="path847"
         style="fill:#e2d047;fill-opacity:1;fill-rule:nonzero;stroke:none;stroke-width:0.1"
         d="m 147.63025,215.61995 v 13.845 c 0,2.606 0.094,6.12 0.285,10.547 0.189,4.424 0.338,6.746 0.448,6.963 h -0.897 c -1.846,-4.182 -3.937,-8.092 -6.27,-11.728 l -13.194,-19.627 z m 44.874,-24.027 h -13.112 v -23.048 h -31.762 v 23.048 h -47.481 v 23.619 l 49.516,72.402 h 29.727 v -71.994 h 13.112 v -24.027" /><path
         inkscape:connector-curvature="0"
         id="path849"
         style="fill:#e2d047;fill-opacity:1;fill-rule:nonzero;stroke:none;stroke-width:0.1"
         d="m 232.89925,227.91695 c 0,-13.466 0.841,-22.723 2.525,-27.772 1.682,-5.049 4.506,-7.574 8.47,-7.574 4.017,0 6.853,2.606 8.51,7.819 1.656,5.212 2.484,14.387 2.484,27.527 0,13.194 -0.843,22.438 -2.524,27.732 -1.684,5.293 -4.508,7.94 -8.47,7.94 -3.964,0 -6.788,-2.553 -8.47,-7.655 -1.684,-5.105 -2.525,-14.444 -2.525,-28.017 z m 53.996,0 c 0,-21.067 -3.53,-36.5 -10.588,-46.3 -7.058,-9.801 -17.863,-14.7 -32.413,-14.7 -14.226,0 -24.949,5.116 -32.17,15.352 -7.221,10.233 -10.831,25.45 -10.831,45.648 0,21.175 3.528,36.702 10.587,46.586 7.057,9.881 17.863,14.822 32.414,14.822 14.171,0 24.88,-5.145 32.128,-15.434 7.249,-10.29 10.873,-25.613 10.873,-45.974" /><path
         inkscape:connector-curvature="0"
         id="path851"
         style="fill:#e2d047;fill-opacity:1;fill-rule:nonzero;stroke:none;stroke-width:0.1"
         d="m 343.09025,215.61995 v 13.845 c 0,2.606 0.094,6.12 0.285,10.547 0.19,4.424 0.339,6.746 0.448,6.963 h -0.896 c -1.846,-4.182 -3.937,-8.092 -6.271,-11.728 l -13.193,-19.627 z m 44.874,-24.027 h -13.111 v -23.048 h -31.763 v 23.048 h -47.481 v 23.619 l 49.517,72.402 h 29.727 v -71.994 h 13.111 v -24.027" /><path
         inkscape:connector-curvature="0"
         id="path853"
         style="fill:none;stroke:#131112;stroke-width:2.16281;stroke-linecap:round;stroke-linejoin:round;stroke-miterlimit:10;stroke-dasharray:none;stroke-opacity:1"
         d="m 52.42565,261.19495 h 48.1366" /><path
         inkscape:connector-curvature="0"
         id="path855"
         style="fill:none;stroke:#131112;stroke-width:2.16281;stroke-linecap:round;stroke-linejoin:round;stroke-miterlimit:10;stroke-dasharray:none;stroke-opacity:1"
         d="m 112.11625,261.19495 h 10.276" /><path
         inkscape:connector-curvature="0"
         id="path857"
         style="fill:none;stroke:#131112;stroke-width:2.16281;stroke-linecap:round;stroke-linejoin:round;stroke-miterlimit:10;stroke-dasharray:none;stroke-opacity:1"
         d="m 43.70805,274.74295 h 86.1752" /><path
         inkscape:connector-curvature="0"
         id="path859"
         style="fill:none;stroke:#131112;stroke-width:2.16281;stroke-linecap:round;stroke-linejoin:round;stroke-miterlimit:10;stroke-dasharray:none;stroke-opacity:1"
         d="m 36.61505,274.74295 h -7.0933" /><path
         inkscape:connector-curvature="0"
         id="path861"
         style="fill:none;stroke:#131112;stroke-width:2.16281;stroke-linecap:round;stroke-linejoin:round;stroke-miterlimit:10;stroke-dasharray:none;stroke-opacity:1"
         d="m 43.70805,287.61395 h 28.6106" /><path
         inkscape:connector-curvature="0"
         id="path863"
         style="fill:none;stroke:#131112;stroke-width:2.16281;stroke-linecap:round;stroke-linejoin:round;stroke-miterlimit:10;stroke-dasharray:none;stroke-opacity:1"
         d="m 79.97795,287.61395 h 60.0863" /><path
         inkscape:connector-curvature="0"
         id="path865"
         style="fill:none;stroke:#131112;stroke-width:2.16281;stroke-linecap:round;stroke-linejoin:round;stroke-miterlimit:10;stroke-dasharray:none;stroke-opacity:1"
         d="m 392.68425,153.70695 h 51.512" /><path
         inkscape:connector-curvature="0"
         id="path867"
         style="fill:none;stroke:#131112;stroke-width:2.16281;stroke-linecap:round;stroke-linejoin:round;stroke-miterlimit:10;stroke-dasharray:none;stroke-opacity:1"
         d="m 452.57425,153.70695 h 7.451" /><path
         inkscape:connector-curvature="0"
         id="path869"
         style="fill:none;stroke:#131112;stroke-width:2.16281;stroke-linecap:round;stroke-linejoin:round;stroke-miterlimit:10;stroke-dasharray:none;stroke-opacity:1"
         d="m 402.97125,167.25595 h 67.507" /><path
         inkscape:connector-curvature="0"
         id="path871"
         style="fill:none;stroke:#131112;stroke-width:2.16281;stroke-linecap:round;stroke-linejoin:round;stroke-miterlimit:10;stroke-dasharray:none;stroke-opacity:1"
         d="m 397.82725,167.25595 h -5.143" /><path
         inkscape:connector-curvature="0"
         id="path873"
         style="fill:none;stroke:#131112;stroke-width:2.16281;stroke-linecap:round;stroke-linejoin:round;stroke-miterlimit:10;stroke-dasharray:none;stroke-opacity:1"
         d="m 392.68425,180.12695 h 31.032" /><path
         inkscape:connector-curvature="0"
         id="path875"
         style="fill:none;stroke:#131112;stroke-width:2.16281;stroke-linecap:round;stroke-linejoin:round;stroke-miterlimit:10;stroke-dasharray:none;stroke-opacity:1"
         d="m 429.27025,180.12695 h 23.304" /><path
         inkscape:connector-curvature="0"
         id="path877"
         style="fill:none;stroke:#131112;stroke-width:3.26751;stroke-linecap:butt;stroke-linejoin:miter;stroke-miterlimit:10;stroke-dasharray:none;stroke-opacity:1"
         d="m 153.79425,216.07395 v 13.846 c 0,2.606 0.094,6.12 0.285,10.547 0.19,4.424 0.339,6.746 0.448,6.963 h -0.896 c -1.846,-4.182 -3.937,-8.092 -6.271,-11.728 l -13.194,-19.628 z m 44.875,-24.026 h -13.112 v -23.048 h -31.763 v 23.048 h -47.481 v 23.619 l 49.517,72.402 h 29.727 v -71.995 h 13.112 z" /><path
         inkscape:connector-curvature="0"
         id="path879"
         style="fill:none;stroke:#131112;stroke-width:3.26751;stroke-linecap:butt;stroke-linejoin:miter;stroke-miterlimit:10;stroke-dasharray:none;stroke-opacity:1"
         d="m 239.06425,228.37195 c 0,-13.466 0.841,-22.723 2.525,-27.772 1.682,-5.049 4.506,-7.574 8.47,-7.574 4.017,0 6.853,2.606 8.51,7.819 1.656,5.212 2.483,14.387 2.483,27.527 0,13.194 -0.842,22.438 -2.524,27.732 -1.683,5.293 -4.507,7.94 -8.469,7.94 -3.964,0 -6.788,-2.553 -8.47,-7.655 -1.684,-5.105 -2.525,-14.444 -2.525,-28.017 z m 53.995,0 c 0,-21.067 -3.53,-36.5 -10.587,-46.301 -7.058,-9.8 -17.864,-14.699 -32.413,-14.699 -14.226,0 -24.95,5.116 -32.17,15.351 -7.222,10.234 -10.832,25.451 -10.832,45.649 0,21.175 3.529,36.702 10.588,46.586 7.057,9.881 17.862,14.821 32.414,14.821 14.17,0 24.879,-5.144 32.128,-15.433 7.249,-10.29 10.872,-25.614 10.872,-45.974 z" /><path
         inkscape:connector-curvature="0"
         id="path881"
         style="fill:none;stroke:#131112;stroke-width:3.26751;stroke-linecap:butt;stroke-linejoin:miter;stroke-miterlimit:10;stroke-dasharray:none;stroke-opacity:1"
         d="m 349.25525,216.07395 v 13.846 c 0,2.606 0.093,6.12 0.285,10.547 0.189,4.424 0.338,6.746 0.448,6.963 h -0.896 c -1.846,-4.182 -3.938,-8.092 -6.271,-11.728 l -13.194,-19.628 z m 44.874,-24.026 h -13.112 v -23.048 h -31.762 v 23.048 h -47.481 v 23.619 l 49.517,72.402 h 29.726 v -71.995 h 13.112 z" /><g
         id="g883"
         transform="translate(-3.32475,-20.769049)"><text
           id="text887"
           style="font-variant:normal;font-weight:800;font-size:37.1855px;font-family:OpenSans;-inkscape-font-specification:OpenSans-Extrabold;writing-mode:lr-tb;fill:#131112;fill-opacity:1;fill-rule:nonzero;stroke:none"
           transform="matrix(1,0,0,-1,190.382,137.6)"><tspan
             id="tspan885"
             sodipodi:role="line"
             y="0"
             x="0 20.408688 45.574188 70.739693 100.37151">ERROR</tspan></text></g><path
         inkscape:connector-curvature="0"
         id="path889"
         style="fill:none;stroke:#131112;stroke-width:2.16281;stroke-linecap:round;stroke-linejoin:round;stroke-miterlimit:10;stroke-dasharray:none;stroke-opacity:1"
         d="m 415.16425,264.13095 v 11.039" /><path
         inkscape:connector-curvature="0"
         id="path891"
         style="fill:none;stroke:#131112;stroke-width:2.16281;stroke-linecap:round;stroke-linejoin:round;stroke-miterlimit:10;stroke-dasharray:none;stroke-opacity:1"
         d="m 407.45825,260.93895 -7.805,7.806" /><path
         inkscape:connector-curvature="0"
         id="path893"
         style="fill:none;stroke:#131112;stroke-width:2.16281;stroke-linecap:round;stroke-linejoin:round;stroke-miterlimit:10;stroke-dasharray:none;stroke-opacity:1"
         d="m 404.26725,253.23295 h -11.039" /><path
         inkscape:connector-curvature="0"
         id="path895"
         style="fill:none;stroke:#131112;stroke-width:2.16281;stroke-linecap:round;stroke-linejoin:round;stroke-miterlimit:10;stroke-dasharray:none;stroke-opacity:1"
         d="m 407.45825,245.52795 -7.805,-7.806" /><path
         inkscape:connector-curvature="0"
         id="path897"
         style="fill:none;stroke:#131112;stroke-width:2.16281;stroke-linecap:round;stroke-linejoin:round;stroke-miterlimit:10;stroke-dasharray:none;stroke-opacity:1"
         d="m 415.16425,242.33595 v -11.039" /><path
         inkscape:connector-curvature="0"
         id="path899"
         style="fill:none;stroke:#131112;stroke-width:2.16281;stroke-linecap:round;stroke-linejoin:round;stroke-miterlimit:10;stroke-dasharray:none;stroke-opacity:1"
         d="m 422.87025,245.52795 7.806,-7.806" /><path
         inkscape:connector-curvature="0"
         id="path901"
         style="fill:none;stroke:#131112;stroke-width:2.16281;stroke-linecap:round;stroke-linejoin:round;stroke-miterlimit:10;stroke-dasharray:none;stroke-opacity:1"
         d="m 426.06225,253.23295 h 11.039" /><path
         inkscape:connector-curvature="0"
         id="path903"
         style="fill:none;stroke:#131112;stroke-width:2.16281;stroke-linecap:round;stroke-linejoin:round;stroke-miterlimit:10;stroke-dasharray:none;stroke-opacity:1"
         d="m 422.87025,260.93895 7.806,7.806" /><path
         inkscape:connector-curvature="0"
         id="path905"
         style="fill:none;stroke:#131112;stroke-width:2.16281;stroke-linecap:round;stroke-linejoin:round;stroke-miterlimit:10;stroke-dasharray:none;stroke-opacity:1"
         d="m 68.93655,209.16495 v 7.979" /><path
         inkscape:connector-curvature="0"
         id="path907"
         style="fill:none;stroke:#131112;stroke-width:2.16281;stroke-linecap:round;stroke-linejoin:round;stroke-miterlimit:10;stroke-dasharray:none;stroke-opacity:1"
         d="m 63.36665,206.85695 -5.6422,5.643" /><path
         inkscape:connector-curvature="0"
         id="path909"
         style="fill:none;stroke:#131112;stroke-width:2.16281;stroke-linecap:round;stroke-linejoin:round;stroke-miterlimit:10;stroke-dasharray:none;stroke-opacity:1"
         d="m 61.05925,201.28695 h -7.9789" /><path
         inkscape:connector-curvature="0"
         id="path911"
         style="fill:none;stroke:#131112;stroke-width:2.16281;stroke-linecap:round;stroke-linejoin:round;stroke-miterlimit:10;stroke-dasharray:none;stroke-opacity:1"
         d="m 63.36665,195.71695 -5.6422,-5.642" /><path
         inkscape:connector-curvature="0"
         id="path913"
         style="fill:none;stroke:#131112;stroke-width:2.16281;stroke-linecap:round;stroke-linejoin:round;stroke-miterlimit:10;stroke-dasharray:none;stroke-opacity:1"
         d="m 68.93655,193.40995 v -7.979" /><path
         inkscape:connector-curvature="0"
         id="path915"
         style="fill:none;stroke:#131112;stroke-width:2.16281;stroke-linecap:round;stroke-linejoin:round;stroke-miterlimit:10;stroke-dasharray:none;stroke-opacity:1"
         d="m 74.50655,195.71695 5.6421,-5.642" /><path
         inkscape:connector-curvature="0"
         id="path917"
         style="fill:none;stroke:#131112;stroke-width:2.16281;stroke-linecap:round;stroke-linejoin:round;stroke-miterlimit:10;stroke-dasharray:none;stroke-opacity:1"
         d="m 76.81355,201.28695 h 7.9793" /><path
         inkscape:connector-curvature="0"
         id="path919"
         style="fill:none;stroke:#131112;stroke-width:2.16281;stroke-linecap:round;stroke-linejoin:round;stroke-miterlimit:10;stroke-dasharray:none;stroke-opacity:1"
         d="m 74.50655,206.85695 5.6421,5.643" /><path
         inkscape:connector-curvature="0"
         id="path921"
         style="fill:none;stroke:#131112;stroke-width:2.16281;stroke-linecap:round;stroke-linejoin:round;stroke-miterlimit:10;stroke-dasharray:none;stroke-opacity:1"
         d="m 284.85825,373.97695 v 7.98" /><path
         inkscape:connector-curvature="0"
         id="path923"
         style="fill:none;stroke:#131112;stroke-width:2.16281;stroke-linecap:round;stroke-linejoin:round;stroke-miterlimit:10;stroke-dasharray:none;stroke-opacity:1"
         d="m 279.28825,371.66995 -5.642,5.642" /><path
         inkscape:connector-curvature="0"
         id="path925"
         style="fill:none;stroke:#131112;stroke-width:2.16281;stroke-linecap:round;stroke-linejoin:round;stroke-miterlimit:10;stroke-dasharray:none;stroke-opacity:1"
         d="m 276.98125,366.09995 h -7.98" /><path
         inkscape:connector-curvature="0"
         id="path927"
         style="fill:none;stroke:#131112;stroke-width:2.16281;stroke-linecap:round;stroke-linejoin:round;stroke-miterlimit:10;stroke-dasharray:none;stroke-opacity:1"
         d="m 279.28825,360.52995 -5.642,-5.642" /><path
         inkscape:connector-curvature="0"
         id="path929"
         style="fill:none;stroke:#131112;stroke-width:2.16281;stroke-linecap:round;stroke-linejoin:round;stroke-miterlimit:10;stroke-dasharray:none;stroke-opacity:1"
         d="m 284.85825,358.22295 v -7.979" /><path
         inkscape:connector-curvature="0"
         id="path931"
         style="fill:none;stroke:#131112;stroke-width:2.16281;stroke-linecap:round;stroke-linejoin:round;stroke-miterlimit:10;stroke-dasharray:none;stroke-opacity:1"
         d="m 290.42825,360.52995 5.642,-5.642" /><path
         inkscape:connector-curvature="0"
         id="path933"
         style="fill:none;stroke:#131112;stroke-width:2.16281;stroke-linecap:round;stroke-linejoin:round;stroke-miterlimit:10;stroke-dasharray:none;stroke-opacity:1"
         d="m 292.73525,366.09995 h 7.979" /><path
         inkscape:connector-curvature="0"
         id="path935"
         style="fill:none;stroke:#131112;stroke-width:2.16281;stroke-linecap:round;stroke-linejoin:round;stroke-miterlimit:10;stroke-dasharray:none;stroke-opacity:1"
         d="m 290.42825,371.66995 5.642,5.642" /><path
         inkscape:connector-curvature="0"
         id="path937"
         style="fill:none;stroke:#131112;stroke-width:2.41871;stroke-linecap:round;stroke-linejoin:round;stroke-miterlimit:10;stroke-dasharray:none;stroke-opacity:1"
         d="m 382.30925,109.23795 h -273.76 v 43.099 h 273.76 z" /><g
         id="g939"
         transform="translate(-3.32475,-20.769049)"><text
           id="text943"
           style="font-variant:normal;font-weight:normal;font-size:16.50000041px;font-family:MyriadPro;-inkscape-font-specification:MyriadPro-Regular;text-align:center;writing-mode:lr-tb;text-anchor:middle;fill:#131112;fill-opacity:1;fill-rule:nonzero;stroke:none"
           transform="matrix(1,0,0,-1,154.635,104.45)"
           x="95.020081"
           y="0"><tspan
             id="tspan941"
             sodipodi:role="line"
             x="95.020081"
             y="0"
             style="font-style:normal;font-variant:normal;font-weight:normal;font-stretch:normal;font-family:Roboto;-inkscape-font-specification:Roboto;">Halaman tidak ditemukan</tspan></text></g><path
         inkscape:connector-curvature="0"
         id="path945"
         style="fill:none;stroke:#131112;stroke-width:2.16281;stroke-linecap:round;stroke-linejoin:round;stroke-miterlimit:10;stroke-dasharray:none;stroke-opacity:1"
         d="m 129.88325,307.03295 v 34.529 h 179.493 v -76.72" /><path
         inkscape:connector-curvature="0"
         id="path947"
         style="fill:none;stroke:#131112;stroke-width:2.16281;stroke-linecap:round;stroke-linejoin:round;stroke-miterlimit:10;stroke-dasharray:none;stroke-opacity:1"
         d="m 246.11225,366.09995 v -43.229 h 119.027 v -19.669" /><path
         inkscape:connector-curvature="0"
         id="path949"
         style="fill:none;stroke:#131112;stroke-width:2.16281;stroke-linecap:round;stroke-linejoin:round;stroke-miterlimit:10;stroke-dasharray:none;stroke-opacity:1"
         d="m 134.16625,302.74995 c 0,-2.365 -1.917,-4.283 -4.283,-4.283 -2.365,0 -4.283,1.918 -4.283,4.283 0,2.366 1.918,4.283 4.283,4.283 2.366,0 4.283,-1.917 4.283,-4.283 z" /><path
         inkscape:connector-curvature="0"
         id="path951"
         style="fill:none;stroke:#131112;stroke-width:2.16281;stroke-linecap:round;stroke-linejoin:round;stroke-miterlimit:10;stroke-dasharray:none;stroke-opacity:1"
         d="m 250.39525,370.38395 c 0,-2.366 -1.918,-4.284 -4.283,-4.284 -2.366,0 -4.284,1.918 -4.284,4.284 0,2.365 1.918,4.283 4.284,4.283 2.365,0 4.283,-1.918 4.283,-4.283 z" /><path
         inkscape:connector-curvature="0"
         id="path953"
         style="fill:none;stroke:#131112;stroke-width:2.16281;stroke-linecap:round;stroke-linejoin:round;stroke-miterlimit:10;stroke-dasharray:none;stroke-opacity:1"
         d="m 369.42225,298.46695 c 0,-2.366 -1.918,-4.283 -4.283,-4.283 -2.366,0 -4.284,1.917 -4.284,4.283 0,2.365 1.918,4.283 4.284,4.283 2.365,0 4.283,-1.918 4.283,-4.283 z" /><path
         inkscape:connector-curvature="0"
         id="path955"
         style="fill:none;stroke:#131112;stroke-width:2.16281;stroke-linecap:round;stroke-linejoin:round;stroke-miterlimit:10;stroke-dasharray:none;stroke-opacity:1"
         d="m 313.65925,259.84795 c 0,-2.366 -1.917,-4.283 -4.283,-4.283 -2.365,0 -4.283,1.917 -4.283,4.283 0,2.365 1.918,4.283 4.283,4.283 2.366,0 4.283,-1.918 4.283,-4.283 z" /><path
         inkscape:connector-curvature="0"
         id="path957"
         style="fill:none;stroke:#131112;stroke-width:2.16281;stroke-linecap:round;stroke-linejoin:round;stroke-miterlimit:10;stroke-dasharray:none;stroke-opacity:1"
         d="m 101.97025,174.06795 -10.1345,-10.135" /><path
         inkscape:connector-curvature="0"
         id="path959"
         style="fill:none;stroke:#131112;stroke-width:2.16281;stroke-linecap:round;stroke-linejoin:round;stroke-miterlimit:10;stroke-dasharray:none;stroke-opacity:1"
         d="m 91.83575,174.06795 10.1345,-10.135" /><path
         inkscape:connector-curvature="0"
         id="path961"
         style="fill:none;stroke:#131112;stroke-width:2.16281;stroke-linecap:round;stroke-linejoin:round;stroke-miterlimit:10;stroke-dasharray:none;stroke-opacity:1"
         d="m 107.03725,321.23095 -10.134,-10.134" /><path
         inkscape:connector-curvature="0"
         id="path963"
         style="fill:none;stroke:#131112;stroke-width:2.16281;stroke-linecap:round;stroke-linejoin:round;stroke-miterlimit:10;stroke-dasharray:none;stroke-opacity:1"
         d="m 96.90325,321.23095 10.134,-10.134" /><path
         inkscape:connector-curvature="0"
         id="path965"
         style="fill:none;stroke:#131112;stroke-width:2.16281;stroke-linecap:round;stroke-linejoin:round;stroke-miterlimit:10;stroke-dasharray:none;stroke-opacity:1"
         d="m 435.74325,206.35495 -10.135,-10.135" /><path
         inkscape:connector-curvature="0"
         id="path967"
         style="fill:none;stroke:#131112;stroke-width:2.16281;stroke-linecap:round;stroke-linejoin:round;stroke-miterlimit:10;stroke-dasharray:none;stroke-opacity:1"
         d="m 425.60825,206.35495 10.135,-10.135" /><path
         inkscape:connector-curvature="0"
         id="path969"
         style="fill:none;stroke:#131112;stroke-width:2.26144;stroke-linecap:round;stroke-linejoin:round;stroke-miterlimit:10;stroke-dasharray:none;stroke-opacity:1"
         d="m 148.14525,379.06995 c -3.232,0 -6.19,-1.163 -8.487,-3.089 -2.346,7.061 -8.994,12.16 -16.843,12.16 -8.788,0 -16.065,-6.389 -17.487,-14.772 -0.927,0.265 -1.901,0.416 -2.913,0.416 -5.8427,0 -10.5795,-4.737 -10.5795,-10.579 0,-5.375 4.0122,-9.804 9.2025,-10.48 v -0.1 h 47.107 c 7.302,0 13.222,5.92 13.222,13.222 0,7.302 -5.92,13.222 -13.222,13.222 z" /><path
         inkscape:connector-curvature="0"
         id="path971"
         style="fill:none;stroke:#131112;stroke-width:2.16281;stroke-linecap:round;stroke-linejoin:round;stroke-miterlimit:10;stroke-dasharray:none;stroke-opacity:1"
         d="m 393.28025,311.81395 c 2.348,0 4.497,-0.845 6.165,-2.244 1.705,5.13 6.534,8.834 12.237,8.834 6.383,0 11.67,-4.642 12.704,-10.731 0.672,0.192 1.381,0.302 2.115,0.302 4.245,0 7.686,-3.441 7.686,-7.686 0,-3.905 -2.914,-7.122 -6.685,-7.613 v -0.073 h -34.222 c -5.305,0 -9.606,4.301 -9.606,9.606 0,5.304 4.301,9.605 9.606,9.605 z" /><path
         inkscape:connector-curvature="0"
         id="path973"
         style="fill:none;stroke:#131112;stroke-width:2.16281;stroke-linecap:round;stroke-linejoin:round;stroke-miterlimit:10;stroke-dasharray:none;stroke-opacity:1"
         d="m 440.46425,130.11795 c -1.969,0 -3.772,-0.709 -5.171,-1.882 -1.429,4.302 -5.48,7.409 -10.262,7.409 -5.354,0 -9.787,-3.893 -10.654,-9 -0.564,0.161 -1.158,0.253 -1.775,0.253 -3.559,0 -6.445,-2.886 -6.445,-6.446 0,-3.274 2.444,-5.972 5.606,-6.384 v -0.061 h 28.701 c 4.449,0 8.055,3.606 8.055,8.055 0,4.449 -3.606,8.056 -8.055,8.056 z" /><path
         inkscape:connector-curvature="0"
         id="path975"
         style="fill:none;stroke:#131112;stroke-width:2.16281;stroke-linecap:round;stroke-linejoin:round;stroke-miterlimit:10;stroke-dasharray:none;stroke-opacity:1"
         d="m 50.92835,147.11695 c 2.3481,0 4.4973,-0.845 6.1657,-2.244 1.7046,5.13 6.5339,8.834 12.2363,8.834 6.384,0 11.6707,-4.641 12.7039,-10.731 0.673,0.193 1.3812,0.302 2.116,0.302 4.2445,0 7.6855,-3.441 7.6855,-7.686 0,-3.905 -2.9144,-7.122 -6.6851,-7.613 v -0.072 h -34.2223 c -5.3047,0 -9.6051,4.3 -9.6051,9.605 0,5.305 4.3004,9.605 9.6051,9.605 z" /><path
         inkscape:connector-curvature="0"
         id="path977"
         style="fill:none;stroke:#131112;stroke-width:2.16281;stroke-linecap:round;stroke-linejoin:round;stroke-miterlimit:10;stroke-dasharray:3.26751, 7.62418;stroke-dashoffset:0;stroke-opacity:1"
         d="m 161.36725,385.41295 c 0,0 60.44,49.277 142.56,26.575 86.263,-23.847 103.531,-85.357 103.531,-85.357" /><path
         inkscape:connector-curvature="0"
         id="path979"
         style="fill:none;stroke:#131112;stroke-width:2.01665;stroke-linecap:round;stroke-linejoin:round;stroke-miterlimit:10;stroke-dasharray:3.04669, 7.10894;stroke-dashoffset:0;stroke-opacity:1"
         d="m 70.10805,242.19095 c -23.4312,-3.634 -35.2101,-53.363 -8.8539,-73.104" /><path
         inkscape:connector-curvature="0"
         id="path981"
         style="fill:none;stroke:#131112;stroke-width:2.16281;stroke-linecap:round;stroke-linejoin:round;stroke-miterlimit:10;stroke-dasharray:3.26751, 7.62418;stroke-dashoffset:0;stroke-opacity:1"
         d="m 365.13925,98.704951 c 0,0 40.137,-17.546 57.731,6.933999" /><path
         inkscape:connector-curvature="0"
         id="path983"
         style="fill:none;stroke:#131112;stroke-width:2.16281;stroke-linecap:round;stroke-linejoin:round;stroke-miterlimit:10;stroke-dasharray:none;stroke-opacity:1"
         d="m 174.18825,298.46695 v 25.346" /><path
         inkscape:connector-curvature="0"
         id="path985"
         style="fill:none;stroke:#131112;stroke-width:2.16281;stroke-linecap:round;stroke-linejoin:round;stroke-miterlimit:10;stroke-dasharray:none;stroke-opacity:1"
         d="m 168.07025,298.46695 v 12.63" /><path
         inkscape:connector-curvature="0"
         id="path987"
         style="fill:none;stroke:#131112;stroke-width:2.16281;stroke-linecap:round;stroke-linejoin:round;stroke-miterlimit:10;stroke-dasharray:none;stroke-opacity:1"
         d="m 267.34525,292.60295 v 18.537" /><path
         inkscape:connector-curvature="0"
         id="path989"
         style="fill:none;stroke:#131112;stroke-width:2.16281;stroke-linecap:round;stroke-linejoin:round;stroke-miterlimit:10;stroke-dasharray:none;stroke-opacity:1"
         d="m 260.39525,294.18395 v 7.688" /><path
         inkscape:connector-curvature="0"
         id="path991"
         style="fill:none;stroke:#131112;stroke-width:2.16281;stroke-linecap:round;stroke-linejoin:round;stroke-miterlimit:10;stroke-dasharray:none;stroke-opacity:1"
         d="m 254.22925,294.18395 v 12.849" /><path
         inkscape:connector-curvature="0"
         id="path993"
         style="fill:none;stroke:#131112;stroke-width:2.16281;stroke-linecap:round;stroke-linejoin:round;stroke-miterlimit:10;stroke-dasharray:none;stroke-opacity:1"
         d="m 180.06925,298.46695 v 12.673" /><path
         inkscape:connector-curvature="0"
         id="path995"
         style="fill:none;stroke:#131112;stroke-width:2.16281;stroke-linecap:round;stroke-linejoin:round;stroke-miterlimit:10;stroke-dasharray:none;stroke-opacity:1"
         d="m 348.07025,294.93895 v 5.669" /><path
         inkscape:connector-curvature="0"
         id="path997"
         style="fill:none;stroke:#131112;stroke-width:2.16281;stroke-linecap:round;stroke-linejoin:round;stroke-miterlimit:10;stroke-dasharray:none;stroke-opacity:1"
         d="m 341.95225,294.93895 v 13.81" /><path
         inkscape:connector-curvature="0"
         id="path999"
         style="fill:none;stroke:#131112;stroke-width:2.16281;stroke-linecap:round;stroke-linejoin:round;stroke-miterlimit:10;stroke-dasharray:none;stroke-opacity:1"
         d="m 353.95125,294.93895 v 9.864" /></g></g></svg>
